<?xml version="1.0" encoding="utf-8" standalone="no"?>
<!DOCTYPE svg PUBLIC "-//W3C//DTD SVG 1.1//EN"
  "http://www.w3.org/Graphics/SVG/1.1/DTD/svg11.dtd">
<!-- Created with matplotlib (http://matplotlib.org/) -->
<svg height="432pt" version="1.1" viewBox="0 0 576 432" width="576pt" xmlns="http://www.w3.org/2000/svg" xmlns:xlink="http://www.w3.org/1999/xlink">
 <defs>
  <style type="text/css">
*{stroke-linecap:butt;stroke-linejoin:round;stroke-miterlimit:100000;}
  </style>
 </defs>
 <g id="figure_1">
  <g id="patch_1">
   <path d="M 0 432 
L 576 432 
L 576 0 
L 0 0 
z
" style="fill:#ffffff;"/>
  </g>
  <g id="axes_1">
   <g id="patch_2">
    <path d="M 72 388.8 
L 518.4 388.8 
L 518.4 43.2 
L 72 43.2 
z
" style="fill:#ffffff;"/>
   </g>
   <g id="line2d_1">
    <path clip-path="url(#pc88d7f0ce6)" d="M 72 388.8 
L 72.744 388.8 
L 73.488 263.7487 
L 74.232 247.41995 
L 74.976 221.303161 
L 75.72 209.663767 
L 76.464 219.973826 
L 77.208 194.156726 
L 77.952 187.549638 
L 78.696 199.673012 
L 79.44 179.441747 
L 80.184 199.797164 
L 81.672 180.124565 
L 82.416 181.591256 
L 83.16 157.240941 
L 83.904 171.988714 
L 84.648 167.684022 
L 85.392 157.69476 
L 86.136 164.351212 
L 86.88 159.98808 
L 87.624 158.085517 
L 88.368 159.918052 
L 89.112 148.699315 
L 90.6 162.197754 
L 91.344 161.12559 
L 92.088 149.435799 
L 92.832 162.80441 
L 93.576 158.330482 
L 94.32 150.190652 
L 95.064 149.709233 
L 95.808 158.435602 
L 96.552 161.102387 
L 98.04 142.581371 
L 98.784 139.443124 
L 99.528 156.963114 
L 100.272 129.216826 
L 101.016 141.122636 
L 101.76 141.255577 
L 102.504 139.524492 
L 103.248 154.889323 
L 103.992 155.349841 
L 104.736 136.162597 
L 105.48 143.977262 
L 106.224 133.848389 
L 107.712 159.945109 
L 108.456 132.674442 
L 109.2 142.728809 
L 109.944 145.964128 
L 111.432 136.396887 
L 112.176 157.254388 
L 112.92 126.451655 
L 113.664 128.160687 
L 114.408 143.599407 
L 115.152 147.2332 
L 115.896 141.9756 
L 116.64 151.051283 
L 118.128 158.022822 
L 118.872 143.408257 
L 119.616 118.045514 
L 120.36 135.967072 
L 121.104 139.808638 
L 121.848 129.877338 
L 122.592 141.90751 
L 123.336 131.263527 
L 124.08 144.582333 
L 124.824 140.745225 
L 125.568 123.539143 
L 126.312 132.162041 
L 127.056 155.699576 
L 127.8 102.895319 
L 128.544 130.047535 
L 129.288 112.054368 
L 130.032 132.586959 
L 130.776 137.331068 
L 131.52 138.36641 
L 132.264 98.578174 
L 133.008 143.032195 
L 133.752 107.347863 
L 134.496 126.586052 
L 135.24 123.315095 
L 135.984 112.863237 
L 136.728 131.130099 
L 137.472 122.830358 
L 138.216 122.175653 
L 138.96 123.347143 
L 139.704 108.831069 
L 140.448 126.463395 
L 141.192 151.22075 
L 141.936 145.191256 
L 142.68 119.887555 
L 143.424 122.017463 
L 144.168 121.415353 
L 144.912 134.524732 
L 145.656 120.049728 
L 146.4 141.962488 
L 147.144 129.508388 
L 147.888 103.946673 
L 148.632 137.593131 
L 149.376 113.003968 
L 150.12 110.344401 
L 150.864 121.243639 
L 151.608 103.160987 
L 152.352 105.536278 
L 153.096 118.032494 
L 153.84 101.699395 
L 154.584 118.283058 
L 155.328 91.982602 
L 156.072 108.563937 
L 156.816 112.535428 
L 157.56 127.872841 
L 158.304 127.648695 
L 159.048 119.721458 
L 159.792 138.153196 
L 160.536 126.743937 
L 161.28 111.060894 
L 162.024 147.480371 
L 162.768 101.344519 
L 163.512 118.284293 
L 164.256 121.24652 
L 165 125.286796 
L 165.744 109.668537 
L 167.232 124.426722 
L 167.976 110.325948 
L 168.72 100.228698 
L 169.464 115.343941 
L 170.208 125.545077 
L 170.952 110.277493 
L 171.696 115.665172 
L 172.44 125.697379 
L 173.184 140.977199 
L 174.672 125.381488 
L 175.416 119.837704 
L 176.16 96.933326 
L 176.904 147.714612 
L 177.648 143.418418 
L 178.392 100.068063 
L 179.136 133.135006 
L 179.88 108.812317 
L 180.624 105.248706 
L 181.368 104.235915 
L 182.112 120.425876 
L 182.856 85.806758 
L 183.6 147.365145 
L 184.344 93.380266 
L 185.088 110.591407 
L 185.832 122.835841 
L 186.576 78.26915 
L 187.32 98.447425 
L 188.064 96.649783 
L 188.808 107.38367 
L 189.552 90.985816 
L 190.296 90.074611 
L 191.04 95.69618 
L 191.784 108.797837 
L 192.528 111.755557 
L 193.272 105.706854 
L 194.016 96.163434 
L 194.76 112.59169 
L 195.504 99.324223 
L 196.248 98.092209 
L 196.992 109.140095 
L 197.736 113.099599 
L 198.48 96.882523 
L 199.224 88.945741 
L 199.968 101.851267 
L 200.712 118.185585 
L 201.456 112.475535 
L 202.2 87.260052 
L 202.944 111.691719 
L 203.688 102.012274 
L 204.432 104.904051 
L 205.176 123.927783 
L 205.92 99.787408 
L 206.664 143.44008 
L 207.408 102.012274 
L 208.152 105.424218 
L 209.64 109.700445 
L 210.384 108.309597 
L 211.128 102.115711 
L 211.872 103.251711 
L 212.616 89.952399 
L 213.36 117.700966 
L 214.104 104.053729 
L 214.848 95.057179 
L 215.592 109.029035 
L 216.336 83.777789 
L 217.08 110.680985 
L 217.824 101.155566 
L 218.568 87.960075 
L 219.312 68.47045 
L 220.056 102.264048 
L 221.544 91.422693 
L 222.288 75.820135 
L 223.032 92.083228 
L 223.776 105.372988 
L 224.52 105.767575 
L 225.264 95.866529 
L 226.008 102.78459 
L 226.752 95.759421 
L 227.496 112.970018 
L 228.24 103.528737 
L 228.984 86.623203 
L 229.728 87.572669 
L 230.472 97.949751 
L 231.216 99.901645 
L 232.704 83.588028 
L 233.448 95.623813 
L 234.192 91.894685 
L 234.936 95.785979 
L 235.68 96.627015 
L 236.424 105.393569 
L 237.168 100.856709 
L 237.912 114.861636 
L 238.656 94.299486 
L 239.4 108.924251 
L 240.144 87.48412 
L 240.888 122.750498 
L 241.632 97.344319 
L 242.376 97.963718 
L 243.12 85.516725 
L 243.864 81.543404 
L 244.608 89.061123 
L 245.352 82.607723 
L 246.096 90.213428 
L 246.84 86.629902 
L 247.584 99.587864 
L 248.328 127.475339 
L 249.072 99.371541 
L 249.816 127.736483 
L 250.56 113.681601 
L 251.304 102.285713 
L 252.048 83.492484 
L 252.792 125.177237 
L 253.536 105.992319 
L 254.28 76.81528 
L 255.024 96.837491 
L 255.768 95.926545 
L 256.512 81.544772 
L 257.256 103.85605 
L 258 112.005021 
L 258.744 102.012274 
L 259.488 82.292374 
L 260.232 98.469429 
L 260.976 94.993605 
L 261.72 123.405058 
L 262.464 89.034413 
L 263.208 99.787408 
L 263.952 113.213744 
L 264.696 67.646682 
L 265.44 77.702828 
L 266.184 64.957353 
L 266.928 75.606436 
L 267.672 110.319638 
L 268.416 97.042345 
L 269.16 113.787352 
L 269.904 100.082339 
L 270.648 91.925831 
L 271.392 99.787408 
L 272.136 92.279039 
L 272.88 122.232079 
L 273.624 80.468781 
L 274.368 75.591489 
L 275.112 96.374183 
L 275.856 82.739806 
L 277.344 101.232279 
L 278.088 69.401525 
L 278.832 67.12277 
L 279.576 101.046602 
L 280.32 87.165486 
L 281.064 82.18123 
L 281.808 92.952474 
L 282.552 112.072098 
L 283.296 92.002137 
L 284.04 84.511552 
L 284.784 105.61321 
L 285.528 90.949317 
L 286.272 74.064735 
L 287.016 71.56167 
L 287.76 91.848731 
L 288.504 67.81996 
L 289.248 92.100147 
L 289.992 84.505415 
L 290.736 81.02031 
L 291.48 66.496316 
L 292.224 67.12277 
L 292.968 91.09695 
L 293.712 80.509652 
L 294.456 90.084316 
L 295.2 89.23912 
L 295.944 68.88271 
L 296.688 91.423313 
L 297.432 90.368464 
L 298.176 75.888971 
L 298.92 91.826046 
L 299.664 68.500313 
L 300.408 94.68388 
L 301.152 97.80452 
L 301.896 97.294238 
L 302.64 76.668361 
L 303.384 85.231488 
L 304.128 77.475742 
L 304.872 89.313616 
L 305.616 96.799981 
L 306.36 71.112625 
L 307.104 106.605613 
L 307.848 68.959672 
L 308.592 82.890019 
L 309.336 68.664819 
L 310.08 78.173681 
L 310.824 49.821852 
L 470.784 49.821852 
L 470.784 49.821852 
" style="fill:none;stroke:#0000ff;stroke-linecap:square;"/>
   </g>
   <g id="line2d_2">
    <path clip-path="url(#pc88d7f0ce6)" d="M 72 137.241128 
L 72.744 137.470789 
L 73.488 167.539736 
L 74.232 190.256543 
L 74.976 187.552013 
L 75.72 196.187007 
L 76.464 199.970908 
L 77.208 204.94435 
L 77.952 219.157363 
L 78.696 199.162192 
L 79.44 208.745291 
L 80.184 196.330643 
L 80.928 204.03956 
L 81.672 200.170487 
L 82.416 205.842866 
L 83.16 223.145587 
L 83.904 193.590669 
L 84.648 201.420791 
L 85.392 234.937175 
L 86.136 215.525016 
L 86.88 219.006719 
L 87.624 215.546957 
L 88.368 208.637003 
L 89.112 200.550582 
L 89.856 213.327226 
L 90.6 210.234795 
L 91.344 228.032053 
L 92.088 196.731073 
L 92.832 197.41797 
L 93.576 220.67464 
L 94.32 219.432516 
L 95.064 220.054254 
L 95.808 218.767551 
L 96.552 199.506065 
L 97.296 221.171922 
L 98.04 211.327563 
L 98.784 216.491738 
L 99.528 198.444519 
L 100.272 214.837226 
L 101.016 216.878838 
L 101.76 203.955865 
L 102.504 212.458439 
L 103.248 217.533756 
L 103.992 227.782666 
L 104.736 212.906103 
L 105.48 187.0064 
L 106.224 210.385396 
L 106.968 192.288425 
L 107.712 214.812648 
L 109.2 209.344567 
L 109.944 208.538814 
L 110.688 202.030173 
L 111.432 212.140719 
L 112.176 212.147935 
L 112.92 216.460521 
L 113.664 206.500906 
L 114.408 215.534815 
L 115.152 216.593542 
L 115.896 205.576919 
L 116.64 213.77729 
L 117.384 212.238242 
L 118.128 213.984811 
L 118.872 195.536351 
L 119.616 192.952169 
L 120.36 205.737511 
L 121.104 207.928595 
L 121.848 212.245875 
L 122.592 205.29244 
L 123.336 213.722335 
L 124.08 201.464529 
L 124.824 213.706925 
L 125.568 209.506681 
L 126.312 200.611874 
L 127.056 195.803515 
L 127.8 188.666078 
L 128.544 197.806227 
L 129.288 191.337709 
L 130.032 204.851671 
L 130.776 204.292207 
L 131.52 209.299949 
L 132.264 195.230393 
L 133.008 202.842635 
L 133.752 187.423364 
L 134.496 202.466559 
L 135.24 209.046046 
L 135.984 195.938609 
L 136.728 204.655104 
L 137.472 192.072772 
L 138.216 200.11214 
L 138.96 197.210429 
L 139.704 200.827673 
L 140.448 190.031155 
L 141.192 206.061103 
L 141.936 205.884749 
L 142.68 205.857231 
L 143.424 212.095962 
L 144.168 196.779117 
L 144.912 210.35384 
L 145.656 194.140231 
L 146.4 190.678224 
L 147.144 199.133191 
L 147.888 191.734645 
L 148.632 197.923828 
L 149.376 194.339494 
L 150.12 188.995021 
L 150.864 190.883487 
L 151.608 176.131477 
L 152.352 190.879151 
L 153.096 202.764291 
L 153.84 174.298218 
L 154.584 203.62323 
L 155.328 186.726099 
L 156.072 201.012551 
L 156.816 204.727688 
L 157.56 196.757832 
L 158.304 200.870584 
L 159.048 200.341046 
L 159.792 203.163707 
L 160.536 203.172161 
L 161.28 203.626265 
L 162.024 196.805195 
L 162.768 183.094484 
L 163.512 194.293018 
L 164.256 196.674271 
L 165 183.030092 
L 165.744 194.787733 
L 166.488 188.125885 
L 167.232 196.84403 
L 167.976 192.899226 
L 168.72 190.867115 
L 169.464 192.211432 
L 170.208 199.705324 
L 170.952 165.964521 
L 171.696 184.139468 
L 172.44 190.663909 
L 173.184 205.029348 
L 174.672 187.9404 
L 175.416 197.447796 
L 176.16 174.12327 
L 176.904 197.44844 
L 177.648 201.557126 
L 178.392 190.097951 
L 179.136 187.354813 
L 180.624 191.980417 
L 181.368 181.232894 
L 182.112 191.532036 
L 182.856 176.321425 
L 183.6 203.915873 
L 184.344 188.625223 
L 185.088 201.367762 
L 185.832 194.723926 
L 186.576 170.657052 
L 187.32 190.125645 
L 188.064 175.823269 
L 188.808 184.943536 
L 189.552 191.490729 
L 190.296 177.847772 
L 191.04 189.924714 
L 191.784 177.324162 
L 192.528 211.567498 
L 193.272 175.900476 
L 194.76 188.197906 
L 195.504 180.714816 
L 196.248 184.686381 
L 196.992 197.701395 
L 197.736 193.075346 
L 198.48 177.916407 
L 199.224 186.646523 
L 199.968 178.708558 
L 200.712 193.750705 
L 201.456 186.419372 
L 202.2 169.09664 
L 202.944 196.674817 
L 203.688 183.087222 
L 205.176 200.175237 
L 205.92 177.203372 
L 206.664 192.073557 
L 207.408 183.087222 
L 208.152 184.494538 
L 208.896 191.73046 
L 209.64 189.603345 
L 210.384 212.825349 
L 211.128 194.809637 
L 212.616 171.358793 
L 213.36 190.760739 
L 214.104 181.926554 
L 214.848 188.083048 
L 215.592 190.953433 
L 216.336 169.898366 
L 217.08 179.579777 
L 217.824 184.913072 
L 218.568 176.077086 
L 219.312 172.005421 
L 220.056 184.384649 
L 220.8 176.362864 
L 221.544 171.858648 
L 222.288 161.043737 
L 223.032 178.958057 
L 223.776 191.969661 
L 224.52 173.524043 
L 226.008 187.241264 
L 226.752 179.993697 
L 227.496 190.694383 
L 228.24 187.488579 
L 228.984 178.450403 
L 229.728 177.142018 
L 230.472 195.902139 
L 231.216 189.290834 
L 231.96 180.443107 
L 232.704 181.045671 
L 233.448 177.422536 
L 234.192 182.786481 
L 234.936 181.240523 
L 235.68 180.351592 
L 236.424 187.846258 
L 237.168 187.490799 
L 237.912 195.152328 
L 238.656 189.018208 
L 239.4 188.488633 
L 240.144 165.776915 
L 240.888 194.033339 
L 241.632 192.078494 
L 242.376 174.922077 
L 243.12 166.235887 
L 243.864 173.200392 
L 244.608 183.205718 
L 245.352 175.32315 
L 246.096 178.031071 
L 246.84 172.693991 
L 247.584 178.819327 
L 248.328 193.814824 
L 249.072 178.553913 
L 249.816 197.081519 
L 250.56 188.295081 
L 251.304 168.821144 
L 252.048 177.102419 
L 252.792 199.850896 
L 253.536 176.21328 
L 254.28 173.52136 
L 255.024 181.374833 
L 255.768 191.468274 
L 256.512 166.895062 
L 257.256 182.212994 
L 258 191.081954 
L 258.744 183.087222 
L 259.488 172.967029 
L 260.232 175.855322 
L 260.976 180.324004 
L 261.72 200.585532 
L 262.464 161.964057 
L 263.208 177.203372 
L 263.952 186.602423 
L 264.696 166.288029 
L 265.44 168.595018 
L 266.184 166.213677 
L 266.928 179.433401 
L 268.416 176.362864 
L 269.16 183.482592 
L 269.904 182.73842 
L 270.648 181.264444 
L 271.392 177.203372 
L 272.136 162.910443 
L 272.88 196.563281 
L 274.368 160.484243 
L 275.112 184.466049 
L 275.856 168.399492 
L 276.6 169.527841 
L 277.344 187.003656 
L 278.088 159.617018 
L 278.832 156.848665 
L 279.576 185.088207 
L 280.32 170.785811 
L 281.064 164.934737 
L 281.808 178.321843 
L 282.552 177.852847 
L 283.296 166.83323 
L 284.04 177.106797 
L 284.784 178.669137 
L 285.528 163.196093 
L 286.272 155.172516 
L 287.016 168.868014 
L 287.76 163.620776 
L 288.504 166.063174 
L 289.248 181.728525 
L 289.992 177.342453 
L 290.736 177.581725 
L 291.48 155.658344 
L 292.224 157.359887 
L 292.968 168.89277 
L 293.712 176.966189 
L 294.456 173.996008 
L 295.2 184.181435 
L 295.944 169.818449 
L 296.688 182.331901 
L 297.432 164.02231 
L 298.176 179.61739 
L 298.92 177.884421 
L 299.664 160.456774 
L 300.408 177.84774 
L 301.152 176.930658 
L 301.896 172.51855 
L 302.64 161.162927 
L 303.384 173.307325 
L 304.128 164.325102 
L 304.872 163.513886 
L 305.616 176.292098 
L 306.36 162.964701 
L 307.104 178.434572 
L 307.848 168.988083 
L 308.592 153.104375 
L 309.336 156.433325 
L 310.08 175.428119 
L 310.824 150.951361 
L 470.784 150.951361 
L 470.784 150.951361 
" style="fill:none;stroke:#008000;stroke-linecap:square;"/>
   </g>
   <g id="line2d_3">
    <path clip-path="url(#pc88d7f0ce6)" d="M 85.392 388.8 
L 85.392 43.2 
" style="fill:none;stroke:#ff0000;stroke-linecap:square;"/>
   </g>
   <g id="patch_3">
    <path d="M 72 43.2 
L 518.4 43.2 
" style="fill:none;stroke:#000000;stroke-linecap:square;stroke-linejoin:miter;"/>
   </g>
   <g id="patch_4">
    <path d="M 518.4 388.8 
L 518.4 43.2 
" style="fill:none;stroke:#000000;stroke-linecap:square;stroke-linejoin:miter;"/>
   </g>
   <g id="patch_5">
    <path d="M 72 388.8 
L 518.4 388.8 
" style="fill:none;stroke:#000000;stroke-linecap:square;stroke-linejoin:miter;"/>
   </g>
   <g id="patch_6">
    <path d="M 72 388.8 
L 72 43.2 
" style="fill:none;stroke:#000000;stroke-linecap:square;stroke-linejoin:miter;"/>
   </g>
   <g id="matplotlib.axis_1">
    <g id="xtick_1">
     <g id="line2d_4">
      <defs>
       <path d="M 0 0 
L 0 -4 
" id="mc009b82e03" style="stroke:#000000;stroke-width:0.5;"/>
      </defs>
      <g>
       <use style="stroke:#000000;stroke-width:0.5;" x="72.0" xlink:href="#mc009b82e03" y="388.8"/>
      </g>
     </g>
     <g id="line2d_5">
      <defs>
       <path d="M 0 0 
L 0 4 
" id="m502df2d425" style="stroke:#000000;stroke-width:0.5;"/>
      </defs>
      <g>
       <use style="stroke:#000000;stroke-width:0.5;" x="72.0" xlink:href="#m502df2d425" y="43.2"/>
      </g>
     </g>
     <g id="text_1">
      <!-- 0 -->
      <defs>
       <path d="M 31.78125 66.40625 
Q 24.171875 66.40625 20.328125 58.90625 
Q 16.5 51.421875 16.5 36.375 
Q 16.5 21.390625 20.328125 13.890625 
Q 24.171875 6.390625 31.78125 6.390625 
Q 39.453125 6.390625 43.28125 13.890625 
Q 47.125 21.390625 47.125 36.375 
Q 47.125 51.421875 43.28125 58.90625 
Q 39.453125 66.40625 31.78125 66.40625 
M 31.78125 74.21875 
Q 44.046875 74.21875 50.515625 64.515625 
Q 56.984375 54.828125 56.984375 36.375 
Q 56.984375 17.96875 50.515625 8.265625 
Q 44.046875 -1.421875 31.78125 -1.421875 
Q 19.53125 -1.421875 13.0625 8.265625 
Q 6.59375 17.96875 6.59375 36.375 
Q 6.59375 54.828125 13.0625 64.515625 
Q 19.53125 74.21875 31.78125 74.21875 
" id="BitstreamVeraSans-Roman-30"/>
      </defs>
      <g transform="translate(68.1825 401.918125)scale(0.12 -0.12)">
       <use xlink:href="#BitstreamVeraSans-Roman-30"/>
      </g>
     </g>
    </g>
    <g id="xtick_2">
     <g id="line2d_6">
      <g>
       <use style="stroke:#000000;stroke-width:0.5;" x="146.4" xlink:href="#mc009b82e03" y="388.8"/>
      </g>
     </g>
     <g id="line2d_7">
      <g>
       <use style="stroke:#000000;stroke-width:0.5;" x="146.4" xlink:href="#m502df2d425" y="43.2"/>
      </g>
     </g>
     <g id="text_2">
      <!-- 100 -->
      <defs>
       <path d="M 12.40625 8.296875 
L 28.515625 8.296875 
L 28.515625 63.921875 
L 10.984375 60.40625 
L 10.984375 69.390625 
L 28.421875 72.90625 
L 38.28125 72.90625 
L 38.28125 8.296875 
L 54.390625 8.296875 
L 54.390625 0 
L 12.40625 0 
z
" id="BitstreamVeraSans-Roman-31"/>
      </defs>
      <g transform="translate(134.9475 401.918125)scale(0.12 -0.12)">
       <use xlink:href="#BitstreamVeraSans-Roman-31"/>
       <use x="63.623046875" xlink:href="#BitstreamVeraSans-Roman-30"/>
       <use x="127.24609375" xlink:href="#BitstreamVeraSans-Roman-30"/>
      </g>
     </g>
    </g>
    <g id="xtick_3">
     <g id="line2d_8">
      <g>
       <use style="stroke:#000000;stroke-width:0.5;" x="220.8" xlink:href="#mc009b82e03" y="388.8"/>
      </g>
     </g>
     <g id="line2d_9">
      <g>
       <use style="stroke:#000000;stroke-width:0.5;" x="220.8" xlink:href="#m502df2d425" y="43.2"/>
      </g>
     </g>
     <g id="text_3">
      <!-- 200 -->
      <defs>
       <path d="M 19.1875 8.296875 
L 53.609375 8.296875 
L 53.609375 0 
L 7.328125 0 
L 7.328125 8.296875 
Q 12.9375 14.109375 22.625 23.890625 
Q 32.328125 33.6875 34.8125 36.53125 
Q 39.546875 41.84375 41.421875 45.53125 
Q 43.3125 49.21875 43.3125 52.78125 
Q 43.3125 58.59375 39.234375 62.25 
Q 35.15625 65.921875 28.609375 65.921875 
Q 23.96875 65.921875 18.8125 64.3125 
Q 13.671875 62.703125 7.8125 59.421875 
L 7.8125 69.390625 
Q 13.765625 71.78125 18.9375 73 
Q 24.125 74.21875 28.421875 74.21875 
Q 39.75 74.21875 46.484375 68.546875 
Q 53.21875 62.890625 53.21875 53.421875 
Q 53.21875 48.921875 51.53125 44.890625 
Q 49.859375 40.875 45.40625 35.40625 
Q 44.1875 33.984375 37.640625 27.21875 
Q 31.109375 20.453125 19.1875 8.296875 
" id="BitstreamVeraSans-Roman-32"/>
      </defs>
      <g transform="translate(209.3475 401.918125)scale(0.12 -0.12)">
       <use xlink:href="#BitstreamVeraSans-Roman-32"/>
       <use x="63.623046875" xlink:href="#BitstreamVeraSans-Roman-30"/>
       <use x="127.24609375" xlink:href="#BitstreamVeraSans-Roman-30"/>
      </g>
     </g>
    </g>
    <g id="xtick_4">
     <g id="line2d_10">
      <g>
       <use style="stroke:#000000;stroke-width:0.5;" x="295.2" xlink:href="#mc009b82e03" y="388.8"/>
      </g>
     </g>
     <g id="line2d_11">
      <g>
       <use style="stroke:#000000;stroke-width:0.5;" x="295.2" xlink:href="#m502df2d425" y="43.2"/>
      </g>
     </g>
     <g id="text_4">
      <!-- 300 -->
      <defs>
       <path d="M 40.578125 39.3125 
Q 47.65625 37.796875 51.625 33 
Q 55.609375 28.21875 55.609375 21.1875 
Q 55.609375 10.40625 48.1875 4.484375 
Q 40.765625 -1.421875 27.09375 -1.421875 
Q 22.515625 -1.421875 17.65625 -0.515625 
Q 12.796875 0.390625 7.625 2.203125 
L 7.625 11.71875 
Q 11.71875 9.328125 16.59375 8.109375 
Q 21.484375 6.890625 26.8125 6.890625 
Q 36.078125 6.890625 40.9375 10.546875 
Q 45.796875 14.203125 45.796875 21.1875 
Q 45.796875 27.640625 41.28125 31.265625 
Q 36.765625 34.90625 28.71875 34.90625 
L 20.21875 34.90625 
L 20.21875 43.015625 
L 29.109375 43.015625 
Q 36.375 43.015625 40.234375 45.921875 
Q 44.09375 48.828125 44.09375 54.296875 
Q 44.09375 59.90625 40.109375 62.90625 
Q 36.140625 65.921875 28.71875 65.921875 
Q 24.65625 65.921875 20.015625 65.03125 
Q 15.375 64.15625 9.8125 62.3125 
L 9.8125 71.09375 
Q 15.4375 72.65625 20.34375 73.4375 
Q 25.25 74.21875 29.59375 74.21875 
Q 40.828125 74.21875 47.359375 69.109375 
Q 53.90625 64.015625 53.90625 55.328125 
Q 53.90625 49.265625 50.4375 45.09375 
Q 46.96875 40.921875 40.578125 39.3125 
" id="BitstreamVeraSans-Roman-33"/>
      </defs>
      <g transform="translate(283.7475 401.918125)scale(0.12 -0.12)">
       <use xlink:href="#BitstreamVeraSans-Roman-33"/>
       <use x="63.623046875" xlink:href="#BitstreamVeraSans-Roman-30"/>
       <use x="127.24609375" xlink:href="#BitstreamVeraSans-Roman-30"/>
      </g>
     </g>
    </g>
    <g id="xtick_5">
     <g id="line2d_12">
      <g>
       <use style="stroke:#000000;stroke-width:0.5;" x="369.6" xlink:href="#mc009b82e03" y="388.8"/>
      </g>
     </g>
     <g id="line2d_13">
      <g>
       <use style="stroke:#000000;stroke-width:0.5;" x="369.6" xlink:href="#m502df2d425" y="43.2"/>
      </g>
     </g>
     <g id="text_5">
      <!-- 400 -->
      <defs>
       <path d="M 37.796875 64.3125 
L 12.890625 25.390625 
L 37.796875 25.390625 
z
M 35.203125 72.90625 
L 47.609375 72.90625 
L 47.609375 25.390625 
L 58.015625 25.390625 
L 58.015625 17.1875 
L 47.609375 17.1875 
L 47.609375 0 
L 37.796875 0 
L 37.796875 17.1875 
L 4.890625 17.1875 
L 4.890625 26.703125 
z
" id="BitstreamVeraSans-Roman-34"/>
      </defs>
      <g transform="translate(358.1475 401.918125)scale(0.12 -0.12)">
       <use xlink:href="#BitstreamVeraSans-Roman-34"/>
       <use x="63.623046875" xlink:href="#BitstreamVeraSans-Roman-30"/>
       <use x="127.24609375" xlink:href="#BitstreamVeraSans-Roman-30"/>
      </g>
     </g>
    </g>
    <g id="xtick_6">
     <g id="line2d_14">
      <g>
       <use style="stroke:#000000;stroke-width:0.5;" x="444.0" xlink:href="#mc009b82e03" y="388.8"/>
      </g>
     </g>
     <g id="line2d_15">
      <g>
       <use style="stroke:#000000;stroke-width:0.5;" x="444.0" xlink:href="#m502df2d425" y="43.2"/>
      </g>
     </g>
     <g id="text_6">
      <!-- 500 -->
      <defs>
       <path d="M 10.796875 72.90625 
L 49.515625 72.90625 
L 49.515625 64.59375 
L 19.828125 64.59375 
L 19.828125 46.734375 
Q 21.96875 47.46875 24.109375 47.828125 
Q 26.265625 48.1875 28.421875 48.1875 
Q 40.625 48.1875 47.75 41.5 
Q 54.890625 34.8125 54.890625 23.390625 
Q 54.890625 11.625 47.5625 5.09375 
Q 40.234375 -1.421875 26.90625 -1.421875 
Q 22.3125 -1.421875 17.546875 -0.640625 
Q 12.796875 0.140625 7.71875 1.703125 
L 7.71875 11.625 
Q 12.109375 9.234375 16.796875 8.0625 
Q 21.484375 6.890625 26.703125 6.890625 
Q 35.15625 6.890625 40.078125 11.328125 
Q 45.015625 15.765625 45.015625 23.390625 
Q 45.015625 31 40.078125 35.4375 
Q 35.15625 39.890625 26.703125 39.890625 
Q 22.75 39.890625 18.8125 39.015625 
Q 14.890625 38.140625 10.796875 36.28125 
z
" id="BitstreamVeraSans-Roman-35"/>
      </defs>
      <g transform="translate(432.5475 401.918125)scale(0.12 -0.12)">
       <use xlink:href="#BitstreamVeraSans-Roman-35"/>
       <use x="63.623046875" xlink:href="#BitstreamVeraSans-Roman-30"/>
       <use x="127.24609375" xlink:href="#BitstreamVeraSans-Roman-30"/>
      </g>
     </g>
    </g>
    <g id="xtick_7">
     <g id="line2d_16">
      <g>
       <use style="stroke:#000000;stroke-width:0.5;" x="518.4" xlink:href="#mc009b82e03" y="388.8"/>
      </g>
     </g>
     <g id="line2d_17">
      <g>
       <use style="stroke:#000000;stroke-width:0.5;" x="518.4" xlink:href="#m502df2d425" y="43.2"/>
      </g>
     </g>
     <g id="text_7">
      <!-- 600 -->
      <defs>
       <path d="M 33.015625 40.375 
Q 26.375 40.375 22.484375 35.828125 
Q 18.609375 31.296875 18.609375 23.390625 
Q 18.609375 15.53125 22.484375 10.953125 
Q 26.375 6.390625 33.015625 6.390625 
Q 39.65625 6.390625 43.53125 10.953125 
Q 47.40625 15.53125 47.40625 23.390625 
Q 47.40625 31.296875 43.53125 35.828125 
Q 39.65625 40.375 33.015625 40.375 
M 52.59375 71.296875 
L 52.59375 62.3125 
Q 48.875 64.0625 45.09375 64.984375 
Q 41.3125 65.921875 37.59375 65.921875 
Q 27.828125 65.921875 22.671875 59.328125 
Q 17.53125 52.734375 16.796875 39.40625 
Q 19.671875 43.65625 24.015625 45.921875 
Q 28.375 48.1875 33.59375 48.1875 
Q 44.578125 48.1875 50.953125 41.515625 
Q 57.328125 34.859375 57.328125 23.390625 
Q 57.328125 12.15625 50.6875 5.359375 
Q 44.046875 -1.421875 33.015625 -1.421875 
Q 20.359375 -1.421875 13.671875 8.265625 
Q 6.984375 17.96875 6.984375 36.375 
Q 6.984375 53.65625 15.1875 63.9375 
Q 23.390625 74.21875 37.203125 74.21875 
Q 40.921875 74.21875 44.703125 73.484375 
Q 48.484375 72.75 52.59375 71.296875 
" id="BitstreamVeraSans-Roman-36"/>
      </defs>
      <g transform="translate(506.9475 401.918125)scale(0.12 -0.12)">
       <use xlink:href="#BitstreamVeraSans-Roman-36"/>
       <use x="63.623046875" xlink:href="#BitstreamVeraSans-Roman-30"/>
       <use x="127.24609375" xlink:href="#BitstreamVeraSans-Roman-30"/>
      </g>
     </g>
    </g>
    <g id="text_8">
     <!-- Leaf Size -->
     <defs>
      <path id="BitstreamVeraSans-Roman-20"/>
      <path d="M 9.8125 72.90625 
L 19.671875 72.90625 
L 19.671875 8.296875 
L 55.171875 8.296875 
L 55.171875 0 
L 9.8125 0 
z
" id="BitstreamVeraSans-Roman-4c"/>
      <path d="M 5.515625 54.6875 
L 48.1875 54.6875 
L 48.1875 46.484375 
L 14.40625 7.171875 
L 48.1875 7.171875 
L 48.1875 0 
L 4.296875 0 
L 4.296875 8.203125 
L 38.09375 47.515625 
L 5.515625 47.515625 
z
" id="BitstreamVeraSans-Roman-7a"/>
      <path d="M 53.515625 70.515625 
L 53.515625 60.890625 
Q 47.90625 63.578125 42.921875 64.890625 
Q 37.9375 66.21875 33.296875 66.21875 
Q 25.25 66.21875 20.875 63.09375 
Q 16.5 59.96875 16.5 54.203125 
Q 16.5 49.359375 19.40625 46.890625 
Q 22.3125 44.4375 30.421875 42.921875 
L 36.375 41.703125 
Q 47.40625 39.59375 52.65625 34.296875 
Q 57.90625 29 57.90625 20.125 
Q 57.90625 9.515625 50.796875 4.046875 
Q 43.703125 -1.421875 29.984375 -1.421875 
Q 24.8125 -1.421875 18.96875 -0.25 
Q 13.140625 0.921875 6.890625 3.21875 
L 6.890625 13.375 
Q 12.890625 10.015625 18.65625 8.296875 
Q 24.421875 6.59375 29.984375 6.59375 
Q 38.421875 6.59375 43.015625 9.90625 
Q 47.609375 13.234375 47.609375 19.390625 
Q 47.609375 24.75 44.3125 27.78125 
Q 41.015625 30.8125 33.5 32.328125 
L 27.484375 33.5 
Q 16.453125 35.6875 11.515625 40.375 
Q 6.59375 45.0625 6.59375 53.421875 
Q 6.59375 63.09375 13.40625 68.65625 
Q 20.21875 74.21875 32.171875 74.21875 
Q 37.3125 74.21875 42.625 73.28125 
Q 47.953125 72.359375 53.515625 70.515625 
" id="BitstreamVeraSans-Roman-53"/>
      <path d="M 9.421875 54.6875 
L 18.40625 54.6875 
L 18.40625 0 
L 9.421875 0 
z
M 9.421875 75.984375 
L 18.40625 75.984375 
L 18.40625 64.59375 
L 9.421875 64.59375 
z
" id="BitstreamVeraSans-Roman-69"/>
      <path d="M 56.203125 29.59375 
L 56.203125 25.203125 
L 14.890625 25.203125 
Q 15.484375 15.921875 20.484375 11.0625 
Q 25.484375 6.203125 34.421875 6.203125 
Q 39.59375 6.203125 44.453125 7.46875 
Q 49.3125 8.734375 54.109375 11.28125 
L 54.109375 2.78125 
Q 49.265625 0.734375 44.1875 -0.34375 
Q 39.109375 -1.421875 33.890625 -1.421875 
Q 20.796875 -1.421875 13.15625 6.1875 
Q 5.515625 13.8125 5.515625 26.8125 
Q 5.515625 40.234375 12.765625 48.109375 
Q 20.015625 56 32.328125 56 
Q 43.359375 56 49.78125 48.890625 
Q 56.203125 41.796875 56.203125 29.59375 
M 47.21875 32.234375 
Q 47.125 39.59375 43.09375 43.984375 
Q 39.0625 48.390625 32.421875 48.390625 
Q 24.90625 48.390625 20.390625 44.140625 
Q 15.875 39.890625 15.1875 32.171875 
z
" id="BitstreamVeraSans-Roman-65"/>
      <path d="M 37.109375 75.984375 
L 37.109375 68.5 
L 28.515625 68.5 
Q 23.6875 68.5 21.796875 66.546875 
Q 19.921875 64.59375 19.921875 59.515625 
L 19.921875 54.6875 
L 34.71875 54.6875 
L 34.71875 47.703125 
L 19.921875 47.703125 
L 19.921875 0 
L 10.890625 0 
L 10.890625 47.703125 
L 2.296875 47.703125 
L 2.296875 54.6875 
L 10.890625 54.6875 
L 10.890625 58.5 
Q 10.890625 67.625 15.140625 71.796875 
Q 19.390625 75.984375 28.609375 75.984375 
z
" id="BitstreamVeraSans-Roman-66"/>
      <path d="M 34.28125 27.484375 
Q 23.390625 27.484375 19.1875 25 
Q 14.984375 22.515625 14.984375 16.5 
Q 14.984375 11.71875 18.140625 8.90625 
Q 21.296875 6.109375 26.703125 6.109375 
Q 34.1875 6.109375 38.703125 11.40625 
Q 43.21875 16.703125 43.21875 25.484375 
L 43.21875 27.484375 
z
M 52.203125 31.203125 
L 52.203125 0 
L 43.21875 0 
L 43.21875 8.296875 
Q 40.140625 3.328125 35.546875 0.953125 
Q 30.953125 -1.421875 24.3125 -1.421875 
Q 15.921875 -1.421875 10.953125 3.296875 
Q 6 8.015625 6 15.921875 
Q 6 25.140625 12.171875 29.828125 
Q 18.359375 34.515625 30.609375 34.515625 
L 43.21875 34.515625 
L 43.21875 35.40625 
Q 43.21875 41.609375 39.140625 45 
Q 35.0625 48.390625 27.6875 48.390625 
Q 23 48.390625 18.546875 47.265625 
Q 14.109375 46.140625 10.015625 43.890625 
L 10.015625 52.203125 
Q 14.9375 54.109375 19.578125 55.046875 
Q 24.21875 56 28.609375 56 
Q 40.484375 56 46.34375 49.84375 
Q 52.203125 43.703125 52.203125 31.203125 
" id="BitstreamVeraSans-Roman-61"/>
     </defs>
     <g transform="translate(268.153125 418.531875)scale(0.12 -0.12)">
      <use xlink:href="#BitstreamVeraSans-Roman-4c"/>
      <use x="55.697265625" xlink:href="#BitstreamVeraSans-Roman-65"/>
      <use x="117.220703125" xlink:href="#BitstreamVeraSans-Roman-61"/>
      <use x="178.5" xlink:href="#BitstreamVeraSans-Roman-66"/>
      <use x="213.705078125" xlink:href="#BitstreamVeraSans-Roman-20"/>
      <use x="245.4921875" xlink:href="#BitstreamVeraSans-Roman-53"/>
      <use x="308.96875" xlink:href="#BitstreamVeraSans-Roman-69"/>
      <use x="336.751953125" xlink:href="#BitstreamVeraSans-Roman-7a"/>
      <use x="389.2421875" xlink:href="#BitstreamVeraSans-Roman-65"/>
     </g>
    </g>
   </g>
   <g id="matplotlib.axis_2">
    <g id="ytick_1">
     <g id="line2d_18">
      <defs>
       <path d="M 0 0 
L 4 0 
" id="m5a2c713720" style="stroke:#000000;stroke-width:0.5;"/>
      </defs>
      <g>
       <use style="stroke:#000000;stroke-width:0.5;" x="72.0" xlink:href="#m5a2c713720" y="388.8"/>
      </g>
     </g>
     <g id="line2d_19">
      <defs>
       <path d="M 0 0 
L -4 0 
" id="m6e322d387e" style="stroke:#000000;stroke-width:0.5;"/>
      </defs>
      <g>
       <use style="stroke:#000000;stroke-width:0.5;" x="518.4" xlink:href="#m6e322d387e" y="388.8"/>
      </g>
     </g>
     <g id="text_9">
      <!-- 0.000 -->
      <defs>
       <path d="M 10.6875 12.40625 
L 21 12.40625 
L 21 0 
L 10.6875 0 
z
" id="BitstreamVeraSans-Roman-2e"/>
      </defs>
      <g transform="translate(33.64625 392.11125)scale(0.12 -0.12)">
       <use xlink:href="#BitstreamVeraSans-Roman-30"/>
       <use x="63.623046875" xlink:href="#BitstreamVeraSans-Roman-2e"/>
       <use x="95.41015625" xlink:href="#BitstreamVeraSans-Roman-30"/>
       <use x="159.033203125" xlink:href="#BitstreamVeraSans-Roman-30"/>
       <use x="222.65625" xlink:href="#BitstreamVeraSans-Roman-30"/>
      </g>
     </g>
    </g>
    <g id="ytick_2">
     <g id="line2d_20">
      <g>
       <use style="stroke:#000000;stroke-width:0.5;" x="72.0" xlink:href="#m5a2c713720" y="331.2"/>
      </g>
     </g>
     <g id="line2d_21">
      <g>
       <use style="stroke:#000000;stroke-width:0.5;" x="518.4" xlink:href="#m6e322d387e" y="331.2"/>
      </g>
     </g>
     <g id="text_10">
      <!-- 0.002 -->
      <g transform="translate(33.64625 334.51125)scale(0.12 -0.12)">
       <use xlink:href="#BitstreamVeraSans-Roman-30"/>
       <use x="63.623046875" xlink:href="#BitstreamVeraSans-Roman-2e"/>
       <use x="95.41015625" xlink:href="#BitstreamVeraSans-Roman-30"/>
       <use x="159.033203125" xlink:href="#BitstreamVeraSans-Roman-30"/>
       <use x="222.65625" xlink:href="#BitstreamVeraSans-Roman-32"/>
      </g>
     </g>
    </g>
    <g id="ytick_3">
     <g id="line2d_22">
      <g>
       <use style="stroke:#000000;stroke-width:0.5;" x="72.0" xlink:href="#m5a2c713720" y="273.6"/>
      </g>
     </g>
     <g id="line2d_23">
      <g>
       <use style="stroke:#000000;stroke-width:0.5;" x="518.4" xlink:href="#m6e322d387e" y="273.6"/>
      </g>
     </g>
     <g id="text_11">
      <!-- 0.004 -->
      <g transform="translate(33.64625 276.91125)scale(0.12 -0.12)">
       <use xlink:href="#BitstreamVeraSans-Roman-30"/>
       <use x="63.623046875" xlink:href="#BitstreamVeraSans-Roman-2e"/>
       <use x="95.41015625" xlink:href="#BitstreamVeraSans-Roman-30"/>
       <use x="159.033203125" xlink:href="#BitstreamVeraSans-Roman-30"/>
       <use x="222.65625" xlink:href="#BitstreamVeraSans-Roman-34"/>
      </g>
     </g>
    </g>
    <g id="ytick_4">
     <g id="line2d_24">
      <g>
       <use style="stroke:#000000;stroke-width:0.5;" x="72.0" xlink:href="#m5a2c713720" y="216.0"/>
      </g>
     </g>
     <g id="line2d_25">
      <g>
       <use style="stroke:#000000;stroke-width:0.5;" x="518.4" xlink:href="#m6e322d387e" y="216.0"/>
      </g>
     </g>
     <g id="text_12">
      <!-- 0.006 -->
      <g transform="translate(33.64625 219.31125)scale(0.12 -0.12)">
       <use xlink:href="#BitstreamVeraSans-Roman-30"/>
       <use x="63.623046875" xlink:href="#BitstreamVeraSans-Roman-2e"/>
       <use x="95.41015625" xlink:href="#BitstreamVeraSans-Roman-30"/>
       <use x="159.033203125" xlink:href="#BitstreamVeraSans-Roman-30"/>
       <use x="222.65625" xlink:href="#BitstreamVeraSans-Roman-36"/>
      </g>
     </g>
    </g>
    <g id="ytick_5">
     <g id="line2d_26">
      <g>
       <use style="stroke:#000000;stroke-width:0.5;" x="72.0" xlink:href="#m5a2c713720" y="158.4"/>
      </g>
     </g>
     <g id="line2d_27">
      <g>
       <use style="stroke:#000000;stroke-width:0.5;" x="518.4" xlink:href="#m6e322d387e" y="158.4"/>
      </g>
     </g>
     <g id="text_13">
      <!-- 0.008 -->
      <defs>
       <path d="M 31.78125 34.625 
Q 24.75 34.625 20.71875 30.859375 
Q 16.703125 27.09375 16.703125 20.515625 
Q 16.703125 13.921875 20.71875 10.15625 
Q 24.75 6.390625 31.78125 6.390625 
Q 38.8125 6.390625 42.859375 10.171875 
Q 46.921875 13.96875 46.921875 20.515625 
Q 46.921875 27.09375 42.890625 30.859375 
Q 38.875 34.625 31.78125 34.625 
M 21.921875 38.8125 
Q 15.578125 40.375 12.03125 44.71875 
Q 8.5 49.078125 8.5 55.328125 
Q 8.5 64.0625 14.71875 69.140625 
Q 20.953125 74.21875 31.78125 74.21875 
Q 42.671875 74.21875 48.875 69.140625 
Q 55.078125 64.0625 55.078125 55.328125 
Q 55.078125 49.078125 51.53125 44.71875 
Q 48 40.375 41.703125 38.8125 
Q 48.828125 37.15625 52.796875 32.3125 
Q 56.78125 27.484375 56.78125 20.515625 
Q 56.78125 9.90625 50.3125 4.234375 
Q 43.84375 -1.421875 31.78125 -1.421875 
Q 19.734375 -1.421875 13.25 4.234375 
Q 6.78125 9.90625 6.78125 20.515625 
Q 6.78125 27.484375 10.78125 32.3125 
Q 14.796875 37.15625 21.921875 38.8125 
M 18.3125 54.390625 
Q 18.3125 48.734375 21.84375 45.5625 
Q 25.390625 42.390625 31.78125 42.390625 
Q 38.140625 42.390625 41.71875 45.5625 
Q 45.3125 48.734375 45.3125 54.390625 
Q 45.3125 60.0625 41.71875 63.234375 
Q 38.140625 66.40625 31.78125 66.40625 
Q 25.390625 66.40625 21.84375 63.234375 
Q 18.3125 60.0625 18.3125 54.390625 
" id="BitstreamVeraSans-Roman-38"/>
      </defs>
      <g transform="translate(33.64625 161.71125)scale(0.12 -0.12)">
       <use xlink:href="#BitstreamVeraSans-Roman-30"/>
       <use x="63.623046875" xlink:href="#BitstreamVeraSans-Roman-2e"/>
       <use x="95.41015625" xlink:href="#BitstreamVeraSans-Roman-30"/>
       <use x="159.033203125" xlink:href="#BitstreamVeraSans-Roman-30"/>
       <use x="222.65625" xlink:href="#BitstreamVeraSans-Roman-38"/>
      </g>
     </g>
    </g>
    <g id="ytick_6">
     <g id="line2d_28">
      <g>
       <use style="stroke:#000000;stroke-width:0.5;" x="72.0" xlink:href="#m5a2c713720" y="100.8"/>
      </g>
     </g>
     <g id="line2d_29">
      <g>
       <use style="stroke:#000000;stroke-width:0.5;" x="518.4" xlink:href="#m6e322d387e" y="100.8"/>
      </g>
     </g>
     <g id="text_14">
      <!-- 0.010 -->
      <g transform="translate(33.64625 104.11125)scale(0.12 -0.12)">
       <use xlink:href="#BitstreamVeraSans-Roman-30"/>
       <use x="63.623046875" xlink:href="#BitstreamVeraSans-Roman-2e"/>
       <use x="95.41015625" xlink:href="#BitstreamVeraSans-Roman-30"/>
       <use x="159.033203125" xlink:href="#BitstreamVeraSans-Roman-31"/>
       <use x="222.65625" xlink:href="#BitstreamVeraSans-Roman-30"/>
      </g>
     </g>
    </g>
    <g id="ytick_7">
     <g id="line2d_30">
      <g>
       <use style="stroke:#000000;stroke-width:0.5;" x="72.0" xlink:href="#m5a2c713720" y="43.2"/>
      </g>
     </g>
     <g id="line2d_31">
      <g>
       <use style="stroke:#000000;stroke-width:0.5;" x="518.4" xlink:href="#m6e322d387e" y="43.2"/>
      </g>
     </g>
     <g id="text_15">
      <!-- 0.012 -->
      <g transform="translate(33.64625 46.51125)scale(0.12 -0.12)">
       <use xlink:href="#BitstreamVeraSans-Roman-30"/>
       <use x="63.623046875" xlink:href="#BitstreamVeraSans-Roman-2e"/>
       <use x="95.41015625" xlink:href="#BitstreamVeraSans-Roman-30"/>
       <use x="159.033203125" xlink:href="#BitstreamVeraSans-Roman-31"/>
       <use x="222.65625" xlink:href="#BitstreamVeraSans-Roman-32"/>
      </g>
     </g>
    </g>
    <g id="text_16">
     <!-- RMSE -->
     <defs>
      <path d="M 44.390625 34.1875 
Q 47.5625 33.109375 50.5625 29.59375 
Q 53.5625 26.078125 56.59375 19.921875 
L 66.609375 0 
L 56 0 
L 46.6875 18.703125 
Q 43.0625 26.03125 39.671875 28.421875 
Q 36.28125 30.8125 30.421875 30.8125 
L 19.671875 30.8125 
L 19.671875 0 
L 9.8125 0 
L 9.8125 72.90625 
L 32.078125 72.90625 
Q 44.578125 72.90625 50.734375 67.671875 
Q 56.890625 62.453125 56.890625 51.90625 
Q 56.890625 45.015625 53.6875 40.46875 
Q 50.484375 35.9375 44.390625 34.1875 
M 19.671875 64.796875 
L 19.671875 38.921875 
L 32.078125 38.921875 
Q 39.203125 38.921875 42.84375 42.21875 
Q 46.484375 45.515625 46.484375 51.90625 
Q 46.484375 58.296875 42.84375 61.546875 
Q 39.203125 64.796875 32.078125 64.796875 
z
" id="BitstreamVeraSans-Roman-52"/>
      <path d="M 9.8125 72.90625 
L 24.515625 72.90625 
L 43.109375 23.296875 
L 61.8125 72.90625 
L 76.515625 72.90625 
L 76.515625 0 
L 66.890625 0 
L 66.890625 64.015625 
L 48.09375 14.015625 
L 38.1875 14.015625 
L 19.390625 64.015625 
L 19.390625 0 
L 9.8125 0 
z
" id="BitstreamVeraSans-Roman-4d"/>
      <path d="M 9.8125 72.90625 
L 55.90625 72.90625 
L 55.90625 64.59375 
L 19.671875 64.59375 
L 19.671875 43.015625 
L 54.390625 43.015625 
L 54.390625 34.71875 
L 19.671875 34.71875 
L 19.671875 8.296875 
L 56.78125 8.296875 
L 56.78125 0 
L 9.8125 0 
z
" id="BitstreamVeraSans-Roman-45"/>
     </defs>
     <g transform="translate(26.150625 232.94625)rotate(-90.0)scale(0.12 -0.12)">
      <use xlink:href="#BitstreamVeraSans-Roman-52"/>
      <use x="69.482421875" xlink:href="#BitstreamVeraSans-Roman-4d"/>
      <use x="155.76171875" xlink:href="#BitstreamVeraSans-Roman-53"/>
      <use x="219.23828125" xlink:href="#BitstreamVeraSans-Roman-45"/>
     </g>
    </g>
   </g>
   <g id="text_17">
    <!-- RMSE of Train and Test Data For Istanbul.csv -->
    <defs>
     <path d="M 54.890625 33.015625 
L 54.890625 0 
L 45.90625 0 
L 45.90625 32.71875 
Q 45.90625 40.484375 42.875 44.328125 
Q 39.84375 48.1875 33.796875 48.1875 
Q 26.515625 48.1875 22.3125 43.546875 
Q 18.109375 38.921875 18.109375 30.90625 
L 18.109375 0 
L 9.078125 0 
L 9.078125 54.6875 
L 18.109375 54.6875 
L 18.109375 46.1875 
Q 21.34375 51.125 25.703125 53.5625 
Q 30.078125 56 35.796875 56 
Q 45.21875 56 50.046875 50.171875 
Q 54.890625 44.34375 54.890625 33.015625 
" id="BitstreamVeraSans-Roman-6e"/>
     <path d="M 30.609375 48.390625 
Q 23.390625 48.390625 19.1875 42.75 
Q 14.984375 37.109375 14.984375 27.296875 
Q 14.984375 17.484375 19.15625 11.84375 
Q 23.34375 6.203125 30.609375 6.203125 
Q 37.796875 6.203125 41.984375 11.859375 
Q 46.1875 17.53125 46.1875 27.296875 
Q 46.1875 37.015625 41.984375 42.703125 
Q 37.796875 48.390625 30.609375 48.390625 
M 30.609375 56 
Q 42.328125 56 49.015625 48.375 
Q 55.71875 40.765625 55.71875 27.296875 
Q 55.71875 13.875 49.015625 6.21875 
Q 42.328125 -1.421875 30.609375 -1.421875 
Q 18.84375 -1.421875 12.171875 6.21875 
Q 5.515625 13.875 5.515625 27.296875 
Q 5.515625 40.765625 12.171875 48.375 
Q 18.84375 56 30.609375 56 
" id="BitstreamVeraSans-Roman-6f"/>
     <path d="M 9.421875 75.984375 
L 18.40625 75.984375 
L 18.40625 0 
L 9.421875 0 
z
" id="BitstreamVeraSans-Roman-6c"/>
     <path d="M 9.8125 72.90625 
L 51.703125 72.90625 
L 51.703125 64.59375 
L 19.671875 64.59375 
L 19.671875 43.109375 
L 48.578125 43.109375 
L 48.578125 34.8125 
L 19.671875 34.8125 
L 19.671875 0 
L 9.8125 0 
z
" id="BitstreamVeraSans-Roman-46"/>
     <path d="M 19.671875 64.796875 
L 19.671875 8.109375 
L 31.59375 8.109375 
Q 46.6875 8.109375 53.6875 14.9375 
Q 60.6875 21.78125 60.6875 36.53125 
Q 60.6875 51.171875 53.6875 57.984375 
Q 46.6875 64.796875 31.59375 64.796875 
z
M 9.8125 72.90625 
L 30.078125 72.90625 
Q 51.265625 72.90625 61.171875 64.09375 
Q 71.09375 55.28125 71.09375 36.53125 
Q 71.09375 17.671875 61.125 8.828125 
Q 51.171875 0 30.078125 0 
L 9.8125 0 
z
" id="BitstreamVeraSans-Roman-44"/>
     <path d="M -0.296875 72.90625 
L 61.375 72.90625 
L 61.375 64.59375 
L 35.5 64.59375 
L 35.5 0 
L 25.59375 0 
L 25.59375 64.59375 
L -0.296875 64.59375 
z
" id="BitstreamVeraSans-Roman-54"/>
     <path d="M 48.78125 52.59375 
L 48.78125 44.1875 
Q 44.96875 46.296875 41.140625 47.34375 
Q 37.3125 48.390625 33.40625 48.390625 
Q 24.65625 48.390625 19.8125 42.84375 
Q 14.984375 37.3125 14.984375 27.296875 
Q 14.984375 17.28125 19.8125 11.734375 
Q 24.65625 6.203125 33.40625 6.203125 
Q 37.3125 6.203125 41.140625 7.25 
Q 44.96875 8.296875 48.78125 10.40625 
L 48.78125 2.09375 
Q 45.015625 0.34375 40.984375 -0.53125 
Q 36.96875 -1.421875 32.421875 -1.421875 
Q 20.0625 -1.421875 12.78125 6.34375 
Q 5.515625 14.109375 5.515625 27.296875 
Q 5.515625 40.671875 12.859375 48.328125 
Q 20.21875 56 33.015625 56 
Q 37.15625 56 41.109375 55.140625 
Q 45.0625 54.296875 48.78125 52.59375 
" id="BitstreamVeraSans-Roman-63"/>
     <path d="M 2.984375 54.6875 
L 12.5 54.6875 
L 29.59375 8.796875 
L 46.6875 54.6875 
L 56.203125 54.6875 
L 35.6875 0 
L 23.484375 0 
z
" id="BitstreamVeraSans-Roman-76"/>
     <path d="M 45.40625 46.390625 
L 45.40625 75.984375 
L 54.390625 75.984375 
L 54.390625 0 
L 45.40625 0 
L 45.40625 8.203125 
Q 42.578125 3.328125 38.25 0.953125 
Q 33.9375 -1.421875 27.875 -1.421875 
Q 17.96875 -1.421875 11.734375 6.484375 
Q 5.515625 14.40625 5.515625 27.296875 
Q 5.515625 40.1875 11.734375 48.09375 
Q 17.96875 56 27.875 56 
Q 33.9375 56 38.25 53.625 
Q 42.578125 51.265625 45.40625 46.390625 
M 14.796875 27.296875 
Q 14.796875 17.390625 18.875 11.75 
Q 22.953125 6.109375 30.078125 6.109375 
Q 37.203125 6.109375 41.296875 11.75 
Q 45.40625 17.390625 45.40625 27.296875 
Q 45.40625 37.203125 41.296875 42.84375 
Q 37.203125 48.484375 30.078125 48.484375 
Q 22.953125 48.484375 18.875 42.84375 
Q 14.796875 37.203125 14.796875 27.296875 
" id="BitstreamVeraSans-Roman-64"/>
     <path d="M 18.3125 70.21875 
L 18.3125 54.6875 
L 36.8125 54.6875 
L 36.8125 47.703125 
L 18.3125 47.703125 
L 18.3125 18.015625 
Q 18.3125 11.328125 20.140625 9.421875 
Q 21.96875 7.515625 27.59375 7.515625 
L 36.8125 7.515625 
L 36.8125 0 
L 27.59375 0 
Q 17.1875 0 13.234375 3.875 
Q 9.28125 7.765625 9.28125 18.015625 
L 9.28125 47.703125 
L 2.6875 47.703125 
L 2.6875 54.6875 
L 9.28125 54.6875 
L 9.28125 70.21875 
z
" id="BitstreamVeraSans-Roman-74"/>
     <path d="M 8.5 21.578125 
L 8.5 54.6875 
L 17.484375 54.6875 
L 17.484375 21.921875 
Q 17.484375 14.15625 20.5 10.265625 
Q 23.53125 6.390625 29.59375 6.390625 
Q 36.859375 6.390625 41.078125 11.03125 
Q 45.3125 15.671875 45.3125 23.6875 
L 45.3125 54.6875 
L 54.296875 54.6875 
L 54.296875 0 
L 45.3125 0 
L 45.3125 8.40625 
Q 42.046875 3.421875 37.71875 1 
Q 33.40625 -1.421875 27.6875 -1.421875 
Q 18.265625 -1.421875 13.375 4.4375 
Q 8.5 10.296875 8.5 21.578125 
" id="BitstreamVeraSans-Roman-75"/>
     <path d="M 41.109375 46.296875 
Q 39.59375 47.171875 37.8125 47.578125 
Q 36.03125 48 33.890625 48 
Q 26.265625 48 22.1875 43.046875 
Q 18.109375 38.09375 18.109375 28.8125 
L 18.109375 0 
L 9.078125 0 
L 9.078125 54.6875 
L 18.109375 54.6875 
L 18.109375 46.1875 
Q 20.953125 51.171875 25.484375 53.578125 
Q 30.03125 56 36.53125 56 
Q 37.453125 56 38.578125 55.875 
Q 39.703125 55.765625 41.0625 55.515625 
z
" id="BitstreamVeraSans-Roman-72"/>
     <path d="M 44.28125 53.078125 
L 44.28125 44.578125 
Q 40.484375 46.53125 36.375 47.5 
Q 32.28125 48.484375 27.875 48.484375 
Q 21.1875 48.484375 17.84375 46.4375 
Q 14.5 44.390625 14.5 40.28125 
Q 14.5 37.15625 16.890625 35.375 
Q 19.28125 33.59375 26.515625 31.984375 
L 29.59375 31.296875 
Q 39.15625 29.25 43.1875 25.515625 
Q 47.21875 21.78125 47.21875 15.09375 
Q 47.21875 7.46875 41.1875 3.015625 
Q 35.15625 -1.421875 24.609375 -1.421875 
Q 20.21875 -1.421875 15.453125 -0.5625 
Q 10.6875 0.296875 5.421875 2 
L 5.421875 11.28125 
Q 10.40625 8.6875 15.234375 7.390625 
Q 20.0625 6.109375 24.8125 6.109375 
Q 31.15625 6.109375 34.5625 8.28125 
Q 37.984375 10.453125 37.984375 14.40625 
Q 37.984375 18.0625 35.515625 20.015625 
Q 33.0625 21.96875 24.703125 23.78125 
L 21.578125 24.515625 
Q 13.234375 26.265625 9.515625 29.90625 
Q 5.8125 33.546875 5.8125 39.890625 
Q 5.8125 47.609375 11.28125 51.796875 
Q 16.75 56 26.8125 56 
Q 31.78125 56 36.171875 55.265625 
Q 40.578125 54.546875 44.28125 53.078125 
" id="BitstreamVeraSans-Roman-73"/>
     <path d="M 9.8125 72.90625 
L 19.671875 72.90625 
L 19.671875 0 
L 9.8125 0 
z
" id="BitstreamVeraSans-Roman-49"/>
     <path d="M 48.6875 27.296875 
Q 48.6875 37.203125 44.609375 42.84375 
Q 40.53125 48.484375 33.40625 48.484375 
Q 26.265625 48.484375 22.1875 42.84375 
Q 18.109375 37.203125 18.109375 27.296875 
Q 18.109375 17.390625 22.1875 11.75 
Q 26.265625 6.109375 33.40625 6.109375 
Q 40.53125 6.109375 44.609375 11.75 
Q 48.6875 17.390625 48.6875 27.296875 
M 18.109375 46.390625 
Q 20.953125 51.265625 25.265625 53.625 
Q 29.59375 56 35.59375 56 
Q 45.5625 56 51.78125 48.09375 
Q 58.015625 40.1875 58.015625 27.296875 
Q 58.015625 14.40625 51.78125 6.484375 
Q 45.5625 -1.421875 35.59375 -1.421875 
Q 29.59375 -1.421875 25.265625 0.953125 
Q 20.953125 3.328125 18.109375 8.203125 
L 18.109375 0 
L 9.078125 0 
L 9.078125 75.984375 
L 18.109375 75.984375 
z
" id="BitstreamVeraSans-Roman-62"/>
    </defs>
    <g transform="translate(132.90075 38.2)scale(0.144 -0.144)">
     <use xlink:href="#BitstreamVeraSans-Roman-52"/>
     <use x="69.482421875" xlink:href="#BitstreamVeraSans-Roman-4d"/>
     <use x="155.76171875" xlink:href="#BitstreamVeraSans-Roman-53"/>
     <use x="219.23828125" xlink:href="#BitstreamVeraSans-Roman-45"/>
     <use x="282.421875" xlink:href="#BitstreamVeraSans-Roman-20"/>
     <use x="314.208984375" xlink:href="#BitstreamVeraSans-Roman-6f"/>
     <use x="375.390625" xlink:href="#BitstreamVeraSans-Roman-66"/>
     <use x="410.595703125" xlink:href="#BitstreamVeraSans-Roman-20"/>
     <use x="442.3828125" xlink:href="#BitstreamVeraSans-Roman-54"/>
     <use x="503.248046875" xlink:href="#BitstreamVeraSans-Roman-72"/>
     <use x="544.361328125" xlink:href="#BitstreamVeraSans-Roman-61"/>
     <use x="605.640625" xlink:href="#BitstreamVeraSans-Roman-69"/>
     <use x="633.423828125" xlink:href="#BitstreamVeraSans-Roman-6e"/>
     <use x="696.802734375" xlink:href="#BitstreamVeraSans-Roman-20"/>
     <use x="728.58984375" xlink:href="#BitstreamVeraSans-Roman-61"/>
     <use x="789.869140625" xlink:href="#BitstreamVeraSans-Roman-6e"/>
     <use x="853.248046875" xlink:href="#BitstreamVeraSans-Roman-64"/>
     <use x="916.724609375" xlink:href="#BitstreamVeraSans-Roman-20"/>
     <use x="948.51171875" xlink:href="#BitstreamVeraSans-Roman-54"/>
     <use x="1009.33007812" xlink:href="#BitstreamVeraSans-Roman-65"/>
     <use x="1070.85351562" xlink:href="#BitstreamVeraSans-Roman-73"/>
     <use x="1122.953125" xlink:href="#BitstreamVeraSans-Roman-74"/>
     <use x="1162.16210938" xlink:href="#BitstreamVeraSans-Roman-20"/>
     <use x="1193.94921875" xlink:href="#BitstreamVeraSans-Roman-44"/>
     <use x="1270.95117188" xlink:href="#BitstreamVeraSans-Roman-61"/>
     <use x="1332.23046875" xlink:href="#BitstreamVeraSans-Roman-74"/>
     <use x="1371.43945312" xlink:href="#BitstreamVeraSans-Roman-61"/>
     <use x="1432.71875" xlink:href="#BitstreamVeraSans-Roman-20"/>
     <use x="1464.50585938" xlink:href="#BitstreamVeraSans-Roman-46"/>
     <use x="1521.97851562" xlink:href="#BitstreamVeraSans-Roman-6f"/>
     <use x="1583.16015625" xlink:href="#BitstreamVeraSans-Roman-72"/>
     <use x="1624.2734375" xlink:href="#BitstreamVeraSans-Roman-20"/>
     <use x="1656.06054688" xlink:href="#BitstreamVeraSans-Roman-49"/>
     <use x="1685.55273438" xlink:href="#BitstreamVeraSans-Roman-73"/>
     <use x="1737.65234375" xlink:href="#BitstreamVeraSans-Roman-74"/>
     <use x="1776.86132812" xlink:href="#BitstreamVeraSans-Roman-61"/>
     <use x="1838.140625" xlink:href="#BitstreamVeraSans-Roman-6e"/>
     <use x="1901.51953125" xlink:href="#BitstreamVeraSans-Roman-62"/>
     <use x="1964.99609375" xlink:href="#BitstreamVeraSans-Roman-75"/>
     <use x="2028.375" xlink:href="#BitstreamVeraSans-Roman-6c"/>
     <use x="2056.15820312" xlink:href="#BitstreamVeraSans-Roman-2e"/>
     <use x="2087.9453125" xlink:href="#BitstreamVeraSans-Roman-63"/>
     <use x="2142.92578125" xlink:href="#BitstreamVeraSans-Roman-73"/>
     <use x="2195.02539062" xlink:href="#BitstreamVeraSans-Roman-76"/>
    </g>
   </g>
   <g id="legend_1">
    <g id="patch_7">
     <path d="M 353.7 96.993 
L 511.2 96.993 
L 511.2 50.4 
L 353.7 50.4 
z
" style="fill:#ffffff;stroke:#000000;stroke-linejoin:miter;"/>
    </g>
    <g id="line2d_32">
     <path d="M 363.78 62.06175 
L 383.94 62.06175 
" style="fill:none;stroke:#0000ff;stroke-linecap:square;"/>
    </g>
    <g id="line2d_33"/>
    <g id="text_18">
     <!-- In Sample -->
     <defs>
      <path d="M 52 44.1875 
Q 55.375 50.25 60.0625 53.125 
Q 64.75 56 71.09375 56 
Q 79.640625 56 84.28125 50.015625 
Q 88.921875 44.046875 88.921875 33.015625 
L 88.921875 0 
L 79.890625 0 
L 79.890625 32.71875 
Q 79.890625 40.578125 77.09375 44.375 
Q 74.3125 48.1875 68.609375 48.1875 
Q 61.625 48.1875 57.5625 43.546875 
Q 53.515625 38.921875 53.515625 30.90625 
L 53.515625 0 
L 44.484375 0 
L 44.484375 32.71875 
Q 44.484375 40.625 41.703125 44.40625 
Q 38.921875 48.1875 33.109375 48.1875 
Q 26.21875 48.1875 22.15625 43.53125 
Q 18.109375 38.875 18.109375 30.90625 
L 18.109375 0 
L 9.078125 0 
L 9.078125 54.6875 
L 18.109375 54.6875 
L 18.109375 46.1875 
Q 21.1875 51.21875 25.484375 53.609375 
Q 29.78125 56 35.6875 56 
Q 41.65625 56 45.828125 52.96875 
Q 50 49.953125 52 44.1875 
" id="BitstreamVeraSans-Roman-6d"/>
      <path d="M 18.109375 8.203125 
L 18.109375 -20.796875 
L 9.078125 -20.796875 
L 9.078125 54.6875 
L 18.109375 54.6875 
L 18.109375 46.390625 
Q 20.953125 51.265625 25.265625 53.625 
Q 29.59375 56 35.59375 56 
Q 45.5625 56 51.78125 48.09375 
Q 58.015625 40.1875 58.015625 27.296875 
Q 58.015625 14.40625 51.78125 6.484375 
Q 45.5625 -1.421875 35.59375 -1.421875 
Q 29.59375 -1.421875 25.265625 0.953125 
Q 20.953125 3.328125 18.109375 8.203125 
M 48.6875 27.296875 
Q 48.6875 37.203125 44.609375 42.84375 
Q 40.53125 48.484375 33.40625 48.484375 
Q 26.265625 48.484375 22.1875 42.84375 
Q 18.109375 37.203125 18.109375 27.296875 
Q 18.109375 17.390625 22.1875 11.75 
Q 26.265625 6.109375 33.40625 6.109375 
Q 40.53125 6.109375 44.609375 11.75 
Q 48.6875 17.390625 48.6875 27.296875 
" id="BitstreamVeraSans-Roman-70"/>
     </defs>
     <g transform="translate(399.78 67.10175)scale(0.144 -0.144)">
      <use xlink:href="#BitstreamVeraSans-Roman-49"/>
      <use x="29.4921875" xlink:href="#BitstreamVeraSans-Roman-6e"/>
      <use x="92.87109375" xlink:href="#BitstreamVeraSans-Roman-20"/>
      <use x="124.658203125" xlink:href="#BitstreamVeraSans-Roman-53"/>
      <use x="188.134765625" xlink:href="#BitstreamVeraSans-Roman-61"/>
      <use x="249.4140625" xlink:href="#BitstreamVeraSans-Roman-6d"/>
      <use x="346.826171875" xlink:href="#BitstreamVeraSans-Roman-70"/>
      <use x="410.302734375" xlink:href="#BitstreamVeraSans-Roman-6c"/>
      <use x="438.0859375" xlink:href="#BitstreamVeraSans-Roman-65"/>
     </g>
    </g>
    <g id="line2d_34">
     <path d="M 363.78 83.19825 
L 383.94 83.19825 
" style="fill:none;stroke:#008000;stroke-linecap:square;"/>
    </g>
    <g id="line2d_35"/>
    <g id="text_19">
     <!-- Out Of Sample -->
     <defs>
      <path d="M 39.40625 66.21875 
Q 28.65625 66.21875 22.328125 58.203125 
Q 16.015625 50.203125 16.015625 36.375 
Q 16.015625 22.609375 22.328125 14.59375 
Q 28.65625 6.59375 39.40625 6.59375 
Q 50.140625 6.59375 56.421875 14.59375 
Q 62.703125 22.609375 62.703125 36.375 
Q 62.703125 50.203125 56.421875 58.203125 
Q 50.140625 66.21875 39.40625 66.21875 
M 39.40625 74.21875 
Q 54.734375 74.21875 63.90625 63.9375 
Q 73.09375 53.65625 73.09375 36.375 
Q 73.09375 19.140625 63.90625 8.859375 
Q 54.734375 -1.421875 39.40625 -1.421875 
Q 24.03125 -1.421875 14.8125 8.828125 
Q 5.609375 19.09375 5.609375 36.375 
Q 5.609375 53.65625 14.8125 63.9375 
Q 24.03125 74.21875 39.40625 74.21875 
" id="BitstreamVeraSans-Roman-4f"/>
     </defs>
     <g transform="translate(399.78 88.23825)scale(0.144 -0.144)">
      <use xlink:href="#BitstreamVeraSans-Roman-4f"/>
      <use x="78.7109375" xlink:href="#BitstreamVeraSans-Roman-75"/>
      <use x="142.08984375" xlink:href="#BitstreamVeraSans-Roman-74"/>
      <use x="181.298828125" xlink:href="#BitstreamVeraSans-Roman-20"/>
      <use x="213.0859375" xlink:href="#BitstreamVeraSans-Roman-4f"/>
      <use x="291.796875" xlink:href="#BitstreamVeraSans-Roman-66"/>
      <use x="327.001953125" xlink:href="#BitstreamVeraSans-Roman-20"/>
      <use x="358.7890625" xlink:href="#BitstreamVeraSans-Roman-53"/>
      <use x="422.265625" xlink:href="#BitstreamVeraSans-Roman-61"/>
      <use x="483.544921875" xlink:href="#BitstreamVeraSans-Roman-6d"/>
      <use x="580.95703125" xlink:href="#BitstreamVeraSans-Roman-70"/>
      <use x="644.43359375" xlink:href="#BitstreamVeraSans-Roman-6c"/>
      <use x="672.216796875" xlink:href="#BitstreamVeraSans-Roman-65"/>
     </g>
    </g>
   </g>
  </g>
 </g>
 <defs>
  <clipPath id="pc88d7f0ce6">
   <rect height="345.6" width="446.4" x="72.0" y="43.2"/>
  </clipPath>
 </defs>
</svg>
