<?xml version="1.0" encoding="utf-8" standalone="no"?>
<!DOCTYPE svg PUBLIC "-//W3C//DTD SVG 1.1//EN"
  "http://www.w3.org/Graphics/SVG/1.1/DTD/svg11.dtd">
<!-- Created with matplotlib (http://matplotlib.org/) -->
<svg height="432pt" version="1.1" viewBox="0 0 576 432" width="576pt" xmlns="http://www.w3.org/2000/svg" xmlns:xlink="http://www.w3.org/1999/xlink">
 <defs>
  <style type="text/css">
*{stroke-linecap:butt;stroke-linejoin:round;stroke-miterlimit:100000;}
  </style>
 </defs>
 <g id="figure_1">
  <g id="patch_1">
   <path d="M 0 432 
L 576 432 
L 576 0 
L 0 0 
z
" style="fill:#ffffff;"/>
  </g>
  <g id="axes_1">
   <g id="patch_2">
    <path d="M 72 388.8 
L 518.4 388.8 
L 518.4 43.2 
L 72 43.2 
z
" style="fill:#ffffff;"/>
   </g>
   <g id="line2d_1">
    <path clip-path="url(#pedb1a6cb0e)" d="M 72 362.949437 
L 72.744 371.191034 
L 74.232 322.992951 
L 74.976 306.601212 
L 75.72 297.22179 
L 76.464 289.502445 
L 77.208 277.266961 
L 77.952 262.734267 
L 78.696 264.355444 
L 79.44 263.800347 
L 80.184 253.994681 
L 80.928 256.058799 
L 81.672 249.036508 
L 82.416 250.39803 
L 83.16 238.73719 
L 83.904 244.937488 
L 84.648 236.448577 
L 85.392 235.382664 
L 86.136 228.220498 
L 86.88 228.700188 
L 87.624 234.797048 
L 88.368 233.559293 
L 89.112 223.397461 
L 89.856 231.541934 
L 90.6 223.050221 
L 91.344 226.300589 
L 92.088 218.917728 
L 92.832 224.225185 
L 93.576 219.768927 
L 94.32 222.235612 
L 95.064 218.26981 
L 95.808 217.452278 
L 97.296 213.549165 
L 98.04 219.228649 
L 98.784 222.459962 
L 99.528 213.017169 
L 101.016 206.989264 
L 101.76 210.489217 
L 102.504 200.611114 
L 103.248 201.342649 
L 103.992 209.663391 
L 104.736 212.173505 
L 106.224 200.536674 
L 106.968 201.075814 
L 107.712 207.475077 
L 108.456 206.520987 
L 109.2 204.626218 
L 109.944 209.482596 
L 110.688 205.616161 
L 111.432 197.191392 
L 112.176 200.24179 
L 113.664 193.944755 
L 114.408 199.018224 
L 115.152 196.698469 
L 115.896 193.800269 
L 116.64 208.816842 
L 117.384 190.233631 
L 118.128 192.71331 
L 118.872 200.735843 
L 119.616 197.049342 
L 120.36 188.227541 
L 121.104 192.624313 
L 121.848 185.618952 
L 122.592 203.739446 
L 123.336 194.823307 
L 124.08 195.532377 
L 124.824 194.006526 
L 125.568 200.29435 
L 126.312 176.048925 
L 127.056 196.798185 
L 127.8 183.597848 
L 128.544 189.324352 
L 130.032 186.073942 
L 130.776 195.262977 
L 131.52 185.045239 
L 132.264 193.724674 
L 133.008 185.705608 
L 133.752 186.844015 
L 134.496 184.40977 
L 135.24 189.695474 
L 136.728 180.3071 
L 137.472 185.617554 
L 138.216 179.784033 
L 138.96 180.393642 
L 139.704 178.907728 
L 140.448 189.495667 
L 141.192 179.119431 
L 141.936 174.44601 
L 142.68 181.056939 
L 143.424 177.301688 
L 144.168 190.840875 
L 144.912 180.602817 
L 145.656 182.656523 
L 146.4 178.566725 
L 147.144 176.556872 
L 147.888 175.852581 
L 148.632 182.390296 
L 149.376 178.509054 
L 150.12 171.396218 
L 150.864 184.262972 
L 151.608 169.511679 
L 152.352 172.331828 
L 153.096 172.230759 
L 153.84 173.612658 
L 154.584 171.925974 
L 155.328 176.538305 
L 156.072 178.061122 
L 156.816 176.205702 
L 157.56 176.131492 
L 159.048 171.500346 
L 159.792 164.938936 
L 160.536 181.740416 
L 161.28 167.809126 
L 162.024 174.596312 
L 162.768 165.466822 
L 163.512 172.494337 
L 164.256 164.32692 
L 165 166.874455 
L 165.744 174.473127 
L 166.488 176.300125 
L 167.232 171.518963 
L 167.976 164.748619 
L 168.72 167.142394 
L 169.464 160.951463 
L 170.208 167.189376 
L 170.952 168.738792 
L 171.696 173.270521 
L 172.44 167.842005 
L 173.184 167.277295 
L 173.928 166.213195 
L 174.672 169.876816 
L 175.416 168.898372 
L 176.16 163.662713 
L 177.648 157.221648 
L 178.392 169.631852 
L 179.136 159.670412 
L 179.88 159.677183 
L 180.624 163.474684 
L 181.368 163.721153 
L 182.112 162.602001 
L 182.856 159.650628 
L 183.6 156.035536 
L 184.344 164.582064 
L 185.088 162.928114 
L 185.832 157.594834 
L 186.576 168.586185 
L 187.32 150.886822 
L 188.064 158.946074 
L 188.808 164.66079 
L 189.552 172.057181 
L 190.296 158.054823 
L 191.04 169.023574 
L 191.784 153.92046 
L 192.528 159.326578 
L 193.272 157.259844 
L 194.016 158.930413 
L 194.76 168.171589 
L 195.504 147.44485 
L 196.248 148.229586 
L 196.992 160.13477 
L 197.736 159.355233 
L 198.48 155.166198 
L 199.224 164.084425 
L 199.968 151.231923 
L 200.712 154.309768 
L 201.456 156.307271 
L 202.2 154.290158 
L 202.944 157.079014 
L 203.688 155.262523 
L 204.432 144.942623 
L 205.176 156.434927 
L 205.92 158.268425 
L 206.664 154.179776 
L 207.408 151.494389 
L 208.152 140.697383 
L 208.896 159.308314 
L 209.64 157.039316 
L 210.384 152.381687 
L 211.128 156.863046 
L 211.872 160.235108 
L 212.616 155.326653 
L 213.36 157.701035 
L 214.104 144.787385 
L 214.848 149.344176 
L 215.592 155.107434 
L 216.336 137.00333 
L 217.08 149.181238 
L 217.824 142.170779 
L 218.568 149.425885 
L 219.312 150.160748 
L 220.056 147.508439 
L 220.8 147.996842 
L 221.544 147.378121 
L 222.288 138.637725 
L 223.032 144.639203 
L 223.776 142.458712 
L 224.52 143.707164 
L 225.264 140.549931 
L 226.008 149.452539 
L 226.752 145.08001 
L 227.496 148.88591 
L 228.24 151.350355 
L 228.984 149.739136 
L 229.728 147.069126 
L 230.472 135.418298 
L 231.216 141.168168 
L 231.96 142.114244 
L 232.704 144.098398 
L 233.448 145.315146 
L 234.192 136.705575 
L 234.936 139.729136 
L 235.68 149.184018 
L 236.424 146.908878 
L 237.168 137.048687 
L 237.912 142.262969 
L 238.656 138.784615 
L 239.4 150.930247 
L 240.144 136.43876 
L 240.888 147.288653 
L 241.632 139.606252 
L 242.376 137.210591 
L 243.12 139.087444 
L 243.864 147.834674 
L 244.608 142.157976 
L 245.352 140.986804 
L 246.096 137.20509 
L 246.84 131.538354 
L 247.584 122.537245 
L 248.328 142.077769 
L 249.072 135.514723 
L 249.816 144.829977 
L 250.56 139.95584 
L 251.304 124.440805 
L 252.048 133.912996 
L 252.792 132.759782 
L 253.536 134.232779 
L 254.28 139.255895 
L 255.024 141.413023 
L 255.768 128.249281 
L 256.512 141.090757 
L 257.256 140.624612 
L 258 138.661589 
L 258.744 131.687648 
L 259.488 133.295339 
L 260.232 131.718836 
L 260.976 139.252734 
L 261.72 130.470739 
L 262.464 125.252043 
L 263.208 131.242319 
L 263.952 119.791743 
L 264.696 133.771251 
L 265.44 134.284176 
L 266.184 128.247013 
L 266.928 126.765179 
L 267.672 130.188552 
L 268.416 138.672675 
L 269.16 134.039349 
L 269.904 130.685092 
L 270.648 136.983998 
L 271.392 129.152636 
L 272.136 122.756591 
L 272.88 124.434109 
L 273.624 132.824987 
L 274.368 128.03991 
L 275.856 131.163723 
L 276.6 127.017401 
L 277.344 127.533956 
L 278.088 124.363611 
L 278.832 122.607931 
L 279.576 132.550206 
L 280.32 136.179357 
L 281.064 133.954344 
L 281.808 132.828439 
L 282.552 123.161576 
L 283.296 128.10189 
L 284.04 131.179421 
L 285.528 113.418084 
L 286.272 124.526167 
L 287.016 122.320202 
L 287.76 129.583053 
L 288.504 122.605891 
L 289.248 125.372796 
L 289.992 127.15489 
L 290.736 120.076093 
L 291.48 121.45291 
L 292.224 124.008621 
L 292.968 119.561903 
L 293.712 118.768156 
L 294.456 124.83303 
L 295.944 119.134175 
L 297.432 133.675655 
L 298.176 123.186407 
L 298.92 123.549375 
L 299.664 127.651975 
L 300.408 126.613753 
L 301.152 119.662334 
L 301.896 120.841122 
L 302.64 114.868767 
L 303.384 122.683669 
L 304.128 123.22443 
L 304.872 119.438534 
L 305.616 107.924706 
L 306.36 126.982631 
L 307.104 120.502396 
L 307.848 125.512552 
L 308.592 126.290071 
L 309.336 119.693076 
L 310.08 119.231291 
L 310.824 51.098435 
L 324.216 51.062559 
L 324.96 51.030541 
L 325.704 51.145064 
L 327.192 51.142676 
L 327.936 50.924697 
L 328.68 51.117939 
L 329.424 51.109484 
L 330.168 50.913091 
L 330.912 51.130651 
L 333.144 51.100441 
L 334.632 51.138855 
L 336.864 51.131681 
L 339.096 51.074232 
L 339.84 50.855974 
L 340.584 51.10211 
L 341.328 51.038833 
L 342.072 51.143094 
L 347.28 51.053169 
L 348.024 50.902796 
L 350.256 51.144661 
L 354.72 51.133939 
L 358.44 51.13811 
L 359.184 51.000407 
L 359.928 51.131613 
L 361.416 51.101789 
L 378.528 51.108759 
L 379.272 51.058845 
L 380.76 51.133 
L 388.944 51.141322 
L 389.688 51.072393 
L 391.176 51.146201 
L 414.24 51.109174 
L 414.984 50.908785 
L 415.728 51.144172 
L 419.448 50.981342 
L 420.192 51.127645 
L 438.048 51.137343 
L 438.792 51.075564 
L 440.28 51.145375 
L 441.768 51.135016 
L 442.512 51.145936 
L 443.256 51.015872 
L 444 51.045866 
L 444.744 50.937176 
L 445.488 51.112745 
L 447.72 51.144923 
L 448.464 51.049122 
L 449.208 51.145592 
L 452.928 51.080461 
L 454.416 51.144825 
L 455.16 51.082912 
L 457.392 51.146142 
L 458.136 51.146151 
L 458.88 50.978072 
L 459.624 51.139257 
L 460.368 51.035612 
L 461.112 51.125241 
L 462.6 51.13793 
L 470.784 51.128142 
L 470.784 51.128142 
" style="fill:none;stroke:#0000ff;stroke-linecap:square;"/>
   </g>
   <g id="line2d_2">
    <path clip-path="url(#pedb1a6cb0e)" d="M 72 294.54684 
L 72.744 294.374329 
L 73.488 294.459305 
L 74.232 285.311007 
L 74.976 290.208804 
L 75.72 293.80967 
L 76.464 291.121716 
L 77.208 291.100384 
L 77.952 290.592086 
L 78.696 299.640872 
L 79.44 298.559762 
L 80.184 303.158092 
L 80.928 298.234966 
L 81.672 299.147341 
L 82.416 303.260146 
L 83.16 298.644166 
L 83.904 297.981194 
L 84.648 291.200976 
L 85.392 295.711445 
L 86.136 298.668143 
L 86.88 294.507026 
L 87.624 296.05274 
L 88.368 295.399598 
L 89.112 293.979349 
L 89.856 301.641717 
L 90.6 291.133659 
L 91.344 294.463084 
L 92.088 293.228232 
L 92.832 296.05806 
L 93.576 294.129426 
L 94.32 297.619278 
L 95.064 296.910277 
L 95.808 294.651771 
L 96.552 290.478739 
L 97.296 287.532088 
L 98.04 288.853113 
L 98.784 297.406009 
L 99.528 289.401121 
L 100.272 290.91 
L 101.016 286.004193 
L 101.76 291.843461 
L 103.248 281.501168 
L 103.992 289.075776 
L 104.736 293.532568 
L 105.48 291.206337 
L 106.224 286.402952 
L 106.968 285.067359 
L 107.712 285.740257 
L 108.456 293.467767 
L 109.2 294.718748 
L 109.944 297.907973 
L 110.688 285.206407 
L 111.432 285.683239 
L 112.176 290.278971 
L 112.92 293.305389 
L 113.664 287.840565 
L 114.408 288.124239 
L 115.152 286.649242 
L 115.896 281.798001 
L 116.64 288.126915 
L 117.384 283.39381 
L 118.128 284.283791 
L 118.872 292.249108 
L 119.616 289.328221 
L 120.36 284.129122 
L 121.104 286.383566 
L 121.848 282.151831 
L 122.592 294.963714 
L 123.336 288.575325 
L 124.824 280.347425 
L 125.568 287.141367 
L 126.312 273.716791 
L 127.056 282.175023 
L 127.8 281.837241 
L 128.544 280.056633 
L 129.288 288.135041 
L 130.032 280.215406 
L 130.776 289.609089 
L 131.52 283.462683 
L 132.264 287.674836 
L 133.008 278.746124 
L 133.752 283.199875 
L 134.496 278.108793 
L 135.24 283.957367 
L 135.984 284.427349 
L 136.728 277.607601 
L 137.472 280.244819 
L 138.216 278.070646 
L 138.96 282.847739 
L 139.704 273.750723 
L 140.448 283.566249 
L 141.192 277.197484 
L 141.936 274.959008 
L 142.68 279.056513 
L 143.424 276.785204 
L 144.168 285.644325 
L 144.912 280.76813 
L 145.656 279.534884 
L 146.4 277.886186 
L 147.144 279.144388 
L 147.888 273.910728 
L 149.376 277.321625 
L 150.12 277.24001 
L 150.864 277.705588 
L 151.608 274.134729 
L 152.352 280.185298 
L 153.096 269.157379 
L 153.84 277.871046 
L 154.584 271.333414 
L 155.328 280.149569 
L 156.072 276.432908 
L 156.816 275.106862 
L 157.56 279.060992 
L 158.304 275.843196 
L 159.048 278.749629 
L 159.792 273.197156 
L 160.536 275.346132 
L 161.28 270.324111 
L 162.024 276.87707 
L 162.768 268.634229 
L 163.512 275.974592 
L 164.256 264.13712 
L 165 273.118891 
L 166.488 279.546571 
L 167.232 274.094372 
L 167.976 270.59967 
L 168.72 268.459206 
L 169.464 267.246259 
L 170.208 266.555333 
L 170.952 272.458666 
L 171.696 280.21661 
L 172.44 270.313187 
L 173.184 273.648425 
L 173.928 273.510546 
L 174.672 270.734491 
L 175.416 266.298321 
L 176.16 264.33404 
L 176.904 266.220483 
L 177.648 267.124115 
L 178.392 275.310733 
L 179.136 267.491299 
L 179.88 264.2023 
L 180.624 270.213456 
L 181.368 263.518806 
L 182.112 274.117922 
L 182.856 265.256526 
L 183.6 263.709475 
L 185.088 273.211891 
L 185.832 264.226827 
L 186.576 271.63526 
L 187.32 257.991995 
L 188.064 264.812036 
L 188.808 266.16524 
L 189.552 277.738673 
L 190.296 268.760297 
L 191.04 276.726376 
L 191.784 267.117278 
L 192.528 264.682532 
L 193.272 259.821542 
L 194.016 267.71143 
L 194.76 271.082005 
L 195.504 258.319351 
L 196.248 261.609564 
L 196.992 269.26711 
L 197.736 259.397934 
L 198.48 261.157022 
L 199.224 272.901049 
L 199.968 258.878982 
L 200.712 258.882598 
L 201.456 261.543865 
L 202.2 254.799493 
L 202.944 264.72589 
L 203.688 265.518834 
L 204.432 255.465059 
L 205.176 263.937272 
L 205.92 258.555468 
L 206.664 258.44486 
L 207.408 259.140089 
L 208.152 251.341376 
L 208.896 262.174301 
L 209.64 262.74422 
L 210.384 259.347274 
L 211.128 263.305349 
L 211.872 266.242719 
L 212.616 260.136665 
L 213.36 265.888019 
L 214.104 256.218435 
L 214.848 259.911712 
L 215.592 261.586959 
L 216.336 250.829645 
L 217.08 255.277238 
L 217.824 253.606139 
L 218.568 258.4417 
L 219.312 252.93572 
L 220.056 255.487752 
L 220.8 262.749045 
L 221.544 256.935969 
L 222.288 247.422551 
L 223.032 256.851852 
L 223.776 252.211924 
L 224.52 256.322993 
L 225.264 253.549135 
L 226.008 260.806312 
L 226.752 256.787882 
L 227.496 262.334179 
L 228.24 256.702543 
L 228.984 258.944561 
L 229.728 257.406057 
L 230.472 247.91348 
L 231.216 257.015104 
L 231.96 256.841909 
L 232.704 258.26902 
L 233.448 256.532155 
L 234.192 253.829467 
L 234.936 249.415853 
L 235.68 254.984356 
L 236.424 255.855172 
L 237.168 250.917888 
L 237.912 253.713627 
L 238.656 252.995402 
L 239.4 259.146731 
L 240.144 249.473892 
L 240.888 252.318424 
L 241.632 251.405311 
L 242.376 251.617166 
L 243.12 247.047176 
L 243.864 256.691161 
L 244.608 254.505168 
L 246.096 249.220232 
L 246.84 249.292972 
L 247.584 242.916134 
L 248.328 249.049575 
L 249.072 247.854685 
L 249.816 250.033223 
L 250.56 254.140775 
L 251.304 237.943836 
L 252.792 249.986907 
L 253.536 247.234243 
L 254.28 251.033814 
L 255.024 246.997959 
L 255.768 244.168028 
L 256.512 246.86116 
L 257.256 248.901677 
L 258 249.384368 
L 258.744 247.965853 
L 259.488 243.455486 
L 260.232 237.611556 
L 260.976 250.014807 
L 261.72 246.671664 
L 262.464 238.780125 
L 263.208 243.041002 
L 263.952 242.20416 
L 264.696 244.378281 
L 265.44 245.182351 
L 266.184 240.0928 
L 266.928 240.660676 
L 267.672 242.485869 
L 268.416 251.538289 
L 269.16 241.612436 
L 269.904 245.093297 
L 270.648 250.500597 
L 271.392 241.928995 
L 272.136 239.887534 
L 272.88 241.643528 
L 273.624 242.192743 
L 274.368 246.86542 
L 275.112 243.791509 
L 275.856 239.300209 
L 276.6 236.035924 
L 277.344 240.35414 
L 278.088 240.368417 
L 278.832 233.783842 
L 279.576 243.128806 
L 280.32 249.523298 
L 281.064 244.772995 
L 281.808 239.15681 
L 282.552 239.160836 
L 283.296 241.359924 
L 284.04 241.949754 
L 284.784 235.961561 
L 285.528 228.577369 
L 286.272 238.555473 
L 287.016 239.20563 
L 287.76 245.825379 
L 288.504 232.879903 
L 289.248 237.018432 
L 289.992 236.260837 
L 290.736 237.744948 
L 291.48 237.98078 
L 292.224 237.202523 
L 292.968 237.391167 
L 293.712 232.475592 
L 294.456 236.572264 
L 295.2 229.821264 
L 295.944 232.26845 
L 296.688 239.803442 
L 297.432 249.064379 
L 298.176 237.213309 
L 298.92 239.673833 
L 299.664 240.982911 
L 300.408 238.021302 
L 301.152 227.920856 
L 301.896 234.279516 
L 302.64 228.778448 
L 303.384 236.70348 
L 304.128 232.205975 
L 304.872 239.344078 
L 305.616 221.435405 
L 306.36 238.546114 
L 307.104 234.127361 
L 307.848 237.036028 
L 309.336 237.543985 
L 310.08 230.41456 
L 310.824 173.38659 
L 311.568 171.520222 
L 312.312 172.208387 
L 313.056 172.690091 
L 313.8 171.337711 
L 314.544 173.323099 
L 315.288 171.587193 
L 316.032 172.920336 
L 316.776 173.461767 
L 317.52 171.885481 
L 318.264 171.745524 
L 319.008 172.750928 
L 319.752 172.671897 
L 320.496 173.225903 
L 321.24 172.875374 
L 321.984 171.468168 
L 322.728 172.017178 
L 323.472 172.976133 
L 324.216 171.126424 
L 324.96 170.860671 
L 325.704 172.648209 
L 326.448 172.922836 
L 327.192 172.755942 
L 327.936 170.146274 
L 328.68 173.194317 
L 330.168 170.077286 
L 330.912 171.936751 
L 331.656 173.370939 
L 333.144 171.506604 
L 333.888 172.58368 
L 335.376 171.59878 
L 336.12 172.192102 
L 336.864 173.006328 
L 337.608 172.624164 
L 338.352 172.375213 
L 339.096 173.569141 
L 339.84 174.440222 
L 340.584 173.354402 
L 341.328 170.926192 
L 342.072 172.25378 
L 342.816 171.934952 
L 344.304 173.107189 
L 345.048 172.404357 
L 345.792 173.405167 
L 346.536 172.491959 
L 347.28 171.04465 
L 348.024 170.017194 
L 348.768 173.874739 
L 349.512 172.775387 
L 350.256 172.671457 
L 351 171.834453 
L 351.744 173.091763 
L 352.488 173.932786 
L 353.232 172.677755 
L 353.976 171.778537 
L 354.72 172.967003 
L 355.464 172.980462 
L 356.208 173.16651 
L 356.952 171.736035 
L 357.696 172.821655 
L 358.44 172.882434 
L 359.184 173.960042 
L 359.928 173.007454 
L 360.672 173.581981 
L 361.416 171.522295 
L 362.16 173.323809 
L 363.648 172.726077 
L 364.392 172.914371 
L 365.136 172.687995 
L 365.88 171.494668 
L 366.624 172.849221 
L 367.368 173.199625 
L 368.112 171.892999 
L 368.856 172.788204 
L 369.6 171.154754 
L 370.344 173.087373 
L 371.088 171.952715 
L 371.832 172.546967 
L 372.576 172.424014 
L 373.32 172.739211 
L 374.064 171.967454 
L 374.808 172.720477 
L 375.552 173.057195 
L 376.296 171.850751 
L 377.04 171.946898 
L 377.784 172.405228 
L 378.528 171.606998 
L 379.272 173.666394 
L 380.016 171.954783 
L 380.76 172.9838 
L 381.504 172.856486 
L 382.248 171.871373 
L 382.992 172.615688 
L 383.736 171.444788 
L 384.48 173.15705 
L 385.224 173.464346 
L 385.968 172.828975 
L 386.712 171.726705 
L 387.456 171.85327 
L 388.2 172.738018 
L 388.944 172.799544 
L 389.688 173.581393 
L 390.432 172.71895 
L 391.176 172.521503 
L 391.92 172.597557 
L 392.664 172.137853 
L 393.408 171.947823 
L 394.152 173.11029 
L 394.896 172.695923 
L 395.64 172.659856 
L 397.128 172.08085 
L 397.872 171.78611 
L 398.616 173.318366 
L 399.36 170.869892 
L 400.104 171.087019 
L 400.848 172.990756 
L 401.592 172.764548 
L 402.336 173.124807 
L 403.08 170.929564 
L 403.824 172.471279 
L 404.568 172.61034 
L 405.312 172.180161 
L 406.8 172.418055 
L 407.544 173.416453 
L 408.288 172.731891 
L 409.032 172.523509 
L 409.776 172.684856 
L 410.52 172.297451 
L 411.264 172.998494 
L 412.008 172.628923 
L 412.752 171.877542 
L 413.496 173.318321 
L 414.984 170.05203 
L 415.728 172.695884 
L 416.472 171.644466 
L 417.216 172.329329 
L 417.96 172.362844 
L 419.448 170.505675 
L 420.192 171.882455 
L 420.936 171.946033 
L 421.68 170.991828 
L 422.424 171.660545 
L 423.168 172.740372 
L 423.912 173.152858 
L 424.656 172.889043 
L 425.4 171.261414 
L 426.144 172.524988 
L 426.888 173.486495 
L 427.632 171.339353 
L 428.376 173.100035 
L 429.12 173.114198 
L 429.864 172.385332 
L 430.608 172.488741 
L 431.352 173.018466 
L 432.096 172.923508 
L 432.84 172.993443 
L 434.328 171.901074 
L 435.072 172.759561 
L 435.816 172.330369 
L 436.56 173.417781 
L 437.304 171.543986 
L 438.048 172.899474 
L 438.792 171.246426 
L 439.536 172.602332 
L 440.28 172.627144 
L 441.024 173.299931 
L 441.768 172.946873 
L 442.512 172.427571 
L 443.256 173.8911 
L 444 173.740483 
L 444.744 174.199383 
L 445.488 171.658607 
L 446.976 172.177554 
L 447.72 172.656717 
L 448.464 171.01048 
L 449.208 172.391424 
L 449.952 173.148434 
L 450.696 172.237221 
L 451.44 173.50138 
L 452.184 172.746741 
L 452.928 173.526178 
L 453.672 172.007903 
L 454.416 172.662394 
L 455.16 173.508601 
L 455.904 172.173592 
L 456.648 173.078907 
L 457.392 172.462448 
L 458.136 172.464848 
L 458.88 170.483716 
L 459.624 172.128614 
L 460.368 170.900496 
L 461.112 173.102956 
L 461.856 173.517837 
L 462.6 172.093667 
L 463.344 172.465168 
L 464.088 171.446695 
L 464.832 172.085623 
L 465.576 173.119449 
L 466.32 172.533315 
L 467.064 171.442729 
L 467.808 171.480992 
L 468.552 172.087272 
L 469.296 173.078164 
L 470.04 172.158828 
L 470.784 173.06179 
L 470.784 173.06179 
" style="fill:none;stroke:#008000;stroke-linecap:square;"/>
   </g>
   <g id="line2d_3">
    <path clip-path="url(#pedb1a6cb0e)" d="M 82.416 388.8 
L 82.416 43.2 
" style="fill:none;stroke:#ff0000;stroke-linecap:square;"/>
   </g>
   <g id="patch_3">
    <path d="M 72 43.2 
L 518.4 43.2 
" style="fill:none;stroke:#000000;stroke-linecap:square;stroke-linejoin:miter;"/>
   </g>
   <g id="patch_4">
    <path d="M 518.4 388.8 
L 518.4 43.2 
" style="fill:none;stroke:#000000;stroke-linecap:square;stroke-linejoin:miter;"/>
   </g>
   <g id="patch_5">
    <path d="M 72 388.8 
L 518.4 388.8 
" style="fill:none;stroke:#000000;stroke-linecap:square;stroke-linejoin:miter;"/>
   </g>
   <g id="patch_6">
    <path d="M 72 388.8 
L 72 43.2 
" style="fill:none;stroke:#000000;stroke-linecap:square;stroke-linejoin:miter;"/>
   </g>
   <g id="matplotlib.axis_1">
    <g id="xtick_1">
     <g id="line2d_4">
      <defs>
       <path d="M 0 0 
L 0 -4 
" id="mbabdbf8797" style="stroke:#000000;stroke-width:0.5;"/>
      </defs>
      <g>
       <use style="stroke:#000000;stroke-width:0.5;" x="72.0" xlink:href="#mbabdbf8797" y="388.8"/>
      </g>
     </g>
     <g id="line2d_5">
      <defs>
       <path d="M 0 0 
L 0 4 
" id="m74adf307e3" style="stroke:#000000;stroke-width:0.5;"/>
      </defs>
      <g>
       <use style="stroke:#000000;stroke-width:0.5;" x="72.0" xlink:href="#m74adf307e3" y="43.2"/>
      </g>
     </g>
     <g id="text_1">
      <!-- 0 -->
      <defs>
       <path d="M 31.78125 66.40625 
Q 24.171875 66.40625 20.328125 58.90625 
Q 16.5 51.421875 16.5 36.375 
Q 16.5 21.390625 20.328125 13.890625 
Q 24.171875 6.390625 31.78125 6.390625 
Q 39.453125 6.390625 43.28125 13.890625 
Q 47.125 21.390625 47.125 36.375 
Q 47.125 51.421875 43.28125 58.90625 
Q 39.453125 66.40625 31.78125 66.40625 
M 31.78125 74.21875 
Q 44.046875 74.21875 50.515625 64.515625 
Q 56.984375 54.828125 56.984375 36.375 
Q 56.984375 17.96875 50.515625 8.265625 
Q 44.046875 -1.421875 31.78125 -1.421875 
Q 19.53125 -1.421875 13.0625 8.265625 
Q 6.59375 17.96875 6.59375 36.375 
Q 6.59375 54.828125 13.0625 64.515625 
Q 19.53125 74.21875 31.78125 74.21875 
" id="BitstreamVeraSans-Roman-30"/>
      </defs>
      <g transform="translate(68.1825 401.918125)scale(0.12 -0.12)">
       <use xlink:href="#BitstreamVeraSans-Roman-30"/>
      </g>
     </g>
    </g>
    <g id="xtick_2">
     <g id="line2d_6">
      <g>
       <use style="stroke:#000000;stroke-width:0.5;" x="146.4" xlink:href="#mbabdbf8797" y="388.8"/>
      </g>
     </g>
     <g id="line2d_7">
      <g>
       <use style="stroke:#000000;stroke-width:0.5;" x="146.4" xlink:href="#m74adf307e3" y="43.2"/>
      </g>
     </g>
     <g id="text_2">
      <!-- 100 -->
      <defs>
       <path d="M 12.40625 8.296875 
L 28.515625 8.296875 
L 28.515625 63.921875 
L 10.984375 60.40625 
L 10.984375 69.390625 
L 28.421875 72.90625 
L 38.28125 72.90625 
L 38.28125 8.296875 
L 54.390625 8.296875 
L 54.390625 0 
L 12.40625 0 
z
" id="BitstreamVeraSans-Roman-31"/>
      </defs>
      <g transform="translate(134.9475 401.918125)scale(0.12 -0.12)">
       <use xlink:href="#BitstreamVeraSans-Roman-31"/>
       <use x="63.623046875" xlink:href="#BitstreamVeraSans-Roman-30"/>
       <use x="127.24609375" xlink:href="#BitstreamVeraSans-Roman-30"/>
      </g>
     </g>
    </g>
    <g id="xtick_3">
     <g id="line2d_8">
      <g>
       <use style="stroke:#000000;stroke-width:0.5;" x="220.8" xlink:href="#mbabdbf8797" y="388.8"/>
      </g>
     </g>
     <g id="line2d_9">
      <g>
       <use style="stroke:#000000;stroke-width:0.5;" x="220.8" xlink:href="#m74adf307e3" y="43.2"/>
      </g>
     </g>
     <g id="text_3">
      <!-- 200 -->
      <defs>
       <path d="M 19.1875 8.296875 
L 53.609375 8.296875 
L 53.609375 0 
L 7.328125 0 
L 7.328125 8.296875 
Q 12.9375 14.109375 22.625 23.890625 
Q 32.328125 33.6875 34.8125 36.53125 
Q 39.546875 41.84375 41.421875 45.53125 
Q 43.3125 49.21875 43.3125 52.78125 
Q 43.3125 58.59375 39.234375 62.25 
Q 35.15625 65.921875 28.609375 65.921875 
Q 23.96875 65.921875 18.8125 64.3125 
Q 13.671875 62.703125 7.8125 59.421875 
L 7.8125 69.390625 
Q 13.765625 71.78125 18.9375 73 
Q 24.125 74.21875 28.421875 74.21875 
Q 39.75 74.21875 46.484375 68.546875 
Q 53.21875 62.890625 53.21875 53.421875 
Q 53.21875 48.921875 51.53125 44.890625 
Q 49.859375 40.875 45.40625 35.40625 
Q 44.1875 33.984375 37.640625 27.21875 
Q 31.109375 20.453125 19.1875 8.296875 
" id="BitstreamVeraSans-Roman-32"/>
      </defs>
      <g transform="translate(209.3475 401.918125)scale(0.12 -0.12)">
       <use xlink:href="#BitstreamVeraSans-Roman-32"/>
       <use x="63.623046875" xlink:href="#BitstreamVeraSans-Roman-30"/>
       <use x="127.24609375" xlink:href="#BitstreamVeraSans-Roman-30"/>
      </g>
     </g>
    </g>
    <g id="xtick_4">
     <g id="line2d_10">
      <g>
       <use style="stroke:#000000;stroke-width:0.5;" x="295.2" xlink:href="#mbabdbf8797" y="388.8"/>
      </g>
     </g>
     <g id="line2d_11">
      <g>
       <use style="stroke:#000000;stroke-width:0.5;" x="295.2" xlink:href="#m74adf307e3" y="43.2"/>
      </g>
     </g>
     <g id="text_4">
      <!-- 300 -->
      <defs>
       <path d="M 40.578125 39.3125 
Q 47.65625 37.796875 51.625 33 
Q 55.609375 28.21875 55.609375 21.1875 
Q 55.609375 10.40625 48.1875 4.484375 
Q 40.765625 -1.421875 27.09375 -1.421875 
Q 22.515625 -1.421875 17.65625 -0.515625 
Q 12.796875 0.390625 7.625 2.203125 
L 7.625 11.71875 
Q 11.71875 9.328125 16.59375 8.109375 
Q 21.484375 6.890625 26.8125 6.890625 
Q 36.078125 6.890625 40.9375 10.546875 
Q 45.796875 14.203125 45.796875 21.1875 
Q 45.796875 27.640625 41.28125 31.265625 
Q 36.765625 34.90625 28.71875 34.90625 
L 20.21875 34.90625 
L 20.21875 43.015625 
L 29.109375 43.015625 
Q 36.375 43.015625 40.234375 45.921875 
Q 44.09375 48.828125 44.09375 54.296875 
Q 44.09375 59.90625 40.109375 62.90625 
Q 36.140625 65.921875 28.71875 65.921875 
Q 24.65625 65.921875 20.015625 65.03125 
Q 15.375 64.15625 9.8125 62.3125 
L 9.8125 71.09375 
Q 15.4375 72.65625 20.34375 73.4375 
Q 25.25 74.21875 29.59375 74.21875 
Q 40.828125 74.21875 47.359375 69.109375 
Q 53.90625 64.015625 53.90625 55.328125 
Q 53.90625 49.265625 50.4375 45.09375 
Q 46.96875 40.921875 40.578125 39.3125 
" id="BitstreamVeraSans-Roman-33"/>
      </defs>
      <g transform="translate(283.7475 401.918125)scale(0.12 -0.12)">
       <use xlink:href="#BitstreamVeraSans-Roman-33"/>
       <use x="63.623046875" xlink:href="#BitstreamVeraSans-Roman-30"/>
       <use x="127.24609375" xlink:href="#BitstreamVeraSans-Roman-30"/>
      </g>
     </g>
    </g>
    <g id="xtick_5">
     <g id="line2d_12">
      <g>
       <use style="stroke:#000000;stroke-width:0.5;" x="369.6" xlink:href="#mbabdbf8797" y="388.8"/>
      </g>
     </g>
     <g id="line2d_13">
      <g>
       <use style="stroke:#000000;stroke-width:0.5;" x="369.6" xlink:href="#m74adf307e3" y="43.2"/>
      </g>
     </g>
     <g id="text_5">
      <!-- 400 -->
      <defs>
       <path d="M 37.796875 64.3125 
L 12.890625 25.390625 
L 37.796875 25.390625 
z
M 35.203125 72.90625 
L 47.609375 72.90625 
L 47.609375 25.390625 
L 58.015625 25.390625 
L 58.015625 17.1875 
L 47.609375 17.1875 
L 47.609375 0 
L 37.796875 0 
L 37.796875 17.1875 
L 4.890625 17.1875 
L 4.890625 26.703125 
z
" id="BitstreamVeraSans-Roman-34"/>
      </defs>
      <g transform="translate(358.1475 401.918125)scale(0.12 -0.12)">
       <use xlink:href="#BitstreamVeraSans-Roman-34"/>
       <use x="63.623046875" xlink:href="#BitstreamVeraSans-Roman-30"/>
       <use x="127.24609375" xlink:href="#BitstreamVeraSans-Roman-30"/>
      </g>
     </g>
    </g>
    <g id="xtick_6">
     <g id="line2d_14">
      <g>
       <use style="stroke:#000000;stroke-width:0.5;" x="444.0" xlink:href="#mbabdbf8797" y="388.8"/>
      </g>
     </g>
     <g id="line2d_15">
      <g>
       <use style="stroke:#000000;stroke-width:0.5;" x="444.0" xlink:href="#m74adf307e3" y="43.2"/>
      </g>
     </g>
     <g id="text_6">
      <!-- 500 -->
      <defs>
       <path d="M 10.796875 72.90625 
L 49.515625 72.90625 
L 49.515625 64.59375 
L 19.828125 64.59375 
L 19.828125 46.734375 
Q 21.96875 47.46875 24.109375 47.828125 
Q 26.265625 48.1875 28.421875 48.1875 
Q 40.625 48.1875 47.75 41.5 
Q 54.890625 34.8125 54.890625 23.390625 
Q 54.890625 11.625 47.5625 5.09375 
Q 40.234375 -1.421875 26.90625 -1.421875 
Q 22.3125 -1.421875 17.546875 -0.640625 
Q 12.796875 0.140625 7.71875 1.703125 
L 7.71875 11.625 
Q 12.109375 9.234375 16.796875 8.0625 
Q 21.484375 6.890625 26.703125 6.890625 
Q 35.15625 6.890625 40.078125 11.328125 
Q 45.015625 15.765625 45.015625 23.390625 
Q 45.015625 31 40.078125 35.4375 
Q 35.15625 39.890625 26.703125 39.890625 
Q 22.75 39.890625 18.8125 39.015625 
Q 14.890625 38.140625 10.796875 36.28125 
z
" id="BitstreamVeraSans-Roman-35"/>
      </defs>
      <g transform="translate(432.5475 401.918125)scale(0.12 -0.12)">
       <use xlink:href="#BitstreamVeraSans-Roman-35"/>
       <use x="63.623046875" xlink:href="#BitstreamVeraSans-Roman-30"/>
       <use x="127.24609375" xlink:href="#BitstreamVeraSans-Roman-30"/>
      </g>
     </g>
    </g>
    <g id="xtick_7">
     <g id="line2d_16">
      <g>
       <use style="stroke:#000000;stroke-width:0.5;" x="518.4" xlink:href="#mbabdbf8797" y="388.8"/>
      </g>
     </g>
     <g id="line2d_17">
      <g>
       <use style="stroke:#000000;stroke-width:0.5;" x="518.4" xlink:href="#m74adf307e3" y="43.2"/>
      </g>
     </g>
     <g id="text_7">
      <!-- 600 -->
      <defs>
       <path d="M 33.015625 40.375 
Q 26.375 40.375 22.484375 35.828125 
Q 18.609375 31.296875 18.609375 23.390625 
Q 18.609375 15.53125 22.484375 10.953125 
Q 26.375 6.390625 33.015625 6.390625 
Q 39.65625 6.390625 43.53125 10.953125 
Q 47.40625 15.53125 47.40625 23.390625 
Q 47.40625 31.296875 43.53125 35.828125 
Q 39.65625 40.375 33.015625 40.375 
M 52.59375 71.296875 
L 52.59375 62.3125 
Q 48.875 64.0625 45.09375 64.984375 
Q 41.3125 65.921875 37.59375 65.921875 
Q 27.828125 65.921875 22.671875 59.328125 
Q 17.53125 52.734375 16.796875 39.40625 
Q 19.671875 43.65625 24.015625 45.921875 
Q 28.375 48.1875 33.59375 48.1875 
Q 44.578125 48.1875 50.953125 41.515625 
Q 57.328125 34.859375 57.328125 23.390625 
Q 57.328125 12.15625 50.6875 5.359375 
Q 44.046875 -1.421875 33.015625 -1.421875 
Q 20.359375 -1.421875 13.671875 8.265625 
Q 6.984375 17.96875 6.984375 36.375 
Q 6.984375 53.65625 15.1875 63.9375 
Q 23.390625 74.21875 37.203125 74.21875 
Q 40.921875 74.21875 44.703125 73.484375 
Q 48.484375 72.75 52.59375 71.296875 
" id="BitstreamVeraSans-Roman-36"/>
      </defs>
      <g transform="translate(506.9475 401.918125)scale(0.12 -0.12)">
       <use xlink:href="#BitstreamVeraSans-Roman-36"/>
       <use x="63.623046875" xlink:href="#BitstreamVeraSans-Roman-30"/>
       <use x="127.24609375" xlink:href="#BitstreamVeraSans-Roman-30"/>
      </g>
     </g>
    </g>
    <g id="text_8">
     <!-- Leaf Size -->
     <defs>
      <path id="BitstreamVeraSans-Roman-20"/>
      <path d="M 9.8125 72.90625 
L 19.671875 72.90625 
L 19.671875 8.296875 
L 55.171875 8.296875 
L 55.171875 0 
L 9.8125 0 
z
" id="BitstreamVeraSans-Roman-4c"/>
      <path d="M 5.515625 54.6875 
L 48.1875 54.6875 
L 48.1875 46.484375 
L 14.40625 7.171875 
L 48.1875 7.171875 
L 48.1875 0 
L 4.296875 0 
L 4.296875 8.203125 
L 38.09375 47.515625 
L 5.515625 47.515625 
z
" id="BitstreamVeraSans-Roman-7a"/>
      <path d="M 53.515625 70.515625 
L 53.515625 60.890625 
Q 47.90625 63.578125 42.921875 64.890625 
Q 37.9375 66.21875 33.296875 66.21875 
Q 25.25 66.21875 20.875 63.09375 
Q 16.5 59.96875 16.5 54.203125 
Q 16.5 49.359375 19.40625 46.890625 
Q 22.3125 44.4375 30.421875 42.921875 
L 36.375 41.703125 
Q 47.40625 39.59375 52.65625 34.296875 
Q 57.90625 29 57.90625 20.125 
Q 57.90625 9.515625 50.796875 4.046875 
Q 43.703125 -1.421875 29.984375 -1.421875 
Q 24.8125 -1.421875 18.96875 -0.25 
Q 13.140625 0.921875 6.890625 3.21875 
L 6.890625 13.375 
Q 12.890625 10.015625 18.65625 8.296875 
Q 24.421875 6.59375 29.984375 6.59375 
Q 38.421875 6.59375 43.015625 9.90625 
Q 47.609375 13.234375 47.609375 19.390625 
Q 47.609375 24.75 44.3125 27.78125 
Q 41.015625 30.8125 33.5 32.328125 
L 27.484375 33.5 
Q 16.453125 35.6875 11.515625 40.375 
Q 6.59375 45.0625 6.59375 53.421875 
Q 6.59375 63.09375 13.40625 68.65625 
Q 20.21875 74.21875 32.171875 74.21875 
Q 37.3125 74.21875 42.625 73.28125 
Q 47.953125 72.359375 53.515625 70.515625 
" id="BitstreamVeraSans-Roman-53"/>
      <path d="M 9.421875 54.6875 
L 18.40625 54.6875 
L 18.40625 0 
L 9.421875 0 
z
M 9.421875 75.984375 
L 18.40625 75.984375 
L 18.40625 64.59375 
L 9.421875 64.59375 
z
" id="BitstreamVeraSans-Roman-69"/>
      <path d="M 56.203125 29.59375 
L 56.203125 25.203125 
L 14.890625 25.203125 
Q 15.484375 15.921875 20.484375 11.0625 
Q 25.484375 6.203125 34.421875 6.203125 
Q 39.59375 6.203125 44.453125 7.46875 
Q 49.3125 8.734375 54.109375 11.28125 
L 54.109375 2.78125 
Q 49.265625 0.734375 44.1875 -0.34375 
Q 39.109375 -1.421875 33.890625 -1.421875 
Q 20.796875 -1.421875 13.15625 6.1875 
Q 5.515625 13.8125 5.515625 26.8125 
Q 5.515625 40.234375 12.765625 48.109375 
Q 20.015625 56 32.328125 56 
Q 43.359375 56 49.78125 48.890625 
Q 56.203125 41.796875 56.203125 29.59375 
M 47.21875 32.234375 
Q 47.125 39.59375 43.09375 43.984375 
Q 39.0625 48.390625 32.421875 48.390625 
Q 24.90625 48.390625 20.390625 44.140625 
Q 15.875 39.890625 15.1875 32.171875 
z
" id="BitstreamVeraSans-Roman-65"/>
      <path d="M 37.109375 75.984375 
L 37.109375 68.5 
L 28.515625 68.5 
Q 23.6875 68.5 21.796875 66.546875 
Q 19.921875 64.59375 19.921875 59.515625 
L 19.921875 54.6875 
L 34.71875 54.6875 
L 34.71875 47.703125 
L 19.921875 47.703125 
L 19.921875 0 
L 10.890625 0 
L 10.890625 47.703125 
L 2.296875 47.703125 
L 2.296875 54.6875 
L 10.890625 54.6875 
L 10.890625 58.5 
Q 10.890625 67.625 15.140625 71.796875 
Q 19.390625 75.984375 28.609375 75.984375 
z
" id="BitstreamVeraSans-Roman-66"/>
      <path d="M 34.28125 27.484375 
Q 23.390625 27.484375 19.1875 25 
Q 14.984375 22.515625 14.984375 16.5 
Q 14.984375 11.71875 18.140625 8.90625 
Q 21.296875 6.109375 26.703125 6.109375 
Q 34.1875 6.109375 38.703125 11.40625 
Q 43.21875 16.703125 43.21875 25.484375 
L 43.21875 27.484375 
z
M 52.203125 31.203125 
L 52.203125 0 
L 43.21875 0 
L 43.21875 8.296875 
Q 40.140625 3.328125 35.546875 0.953125 
Q 30.953125 -1.421875 24.3125 -1.421875 
Q 15.921875 -1.421875 10.953125 3.296875 
Q 6 8.015625 6 15.921875 
Q 6 25.140625 12.171875 29.828125 
Q 18.359375 34.515625 30.609375 34.515625 
L 43.21875 34.515625 
L 43.21875 35.40625 
Q 43.21875 41.609375 39.140625 45 
Q 35.0625 48.390625 27.6875 48.390625 
Q 23 48.390625 18.546875 47.265625 
Q 14.109375 46.140625 10.015625 43.890625 
L 10.015625 52.203125 
Q 14.9375 54.109375 19.578125 55.046875 
Q 24.21875 56 28.609375 56 
Q 40.484375 56 46.34375 49.84375 
Q 52.203125 43.703125 52.203125 31.203125 
" id="BitstreamVeraSans-Roman-61"/>
     </defs>
     <g transform="translate(268.153125 418.531875)scale(0.12 -0.12)">
      <use xlink:href="#BitstreamVeraSans-Roman-4c"/>
      <use x="55.697265625" xlink:href="#BitstreamVeraSans-Roman-65"/>
      <use x="117.220703125" xlink:href="#BitstreamVeraSans-Roman-61"/>
      <use x="178.5" xlink:href="#BitstreamVeraSans-Roman-66"/>
      <use x="213.705078125" xlink:href="#BitstreamVeraSans-Roman-20"/>
      <use x="245.4921875" xlink:href="#BitstreamVeraSans-Roman-53"/>
      <use x="308.96875" xlink:href="#BitstreamVeraSans-Roman-69"/>
      <use x="336.751953125" xlink:href="#BitstreamVeraSans-Roman-7a"/>
      <use x="389.2421875" xlink:href="#BitstreamVeraSans-Roman-65"/>
     </g>
    </g>
   </g>
   <g id="matplotlib.axis_2">
    <g id="ytick_1">
     <g id="line2d_18">
      <defs>
       <path d="M 0 0 
L 4 0 
" id="ma480636bed" style="stroke:#000000;stroke-width:0.5;"/>
      </defs>
      <g>
       <use style="stroke:#000000;stroke-width:0.5;" x="72.0" xlink:href="#ma480636bed" y="388.8"/>
      </g>
     </g>
     <g id="line2d_19">
      <defs>
       <path d="M 0 0 
L -4 0 
" id="m48ca3db8d1" style="stroke:#000000;stroke-width:0.5;"/>
      </defs>
      <g>
       <use style="stroke:#000000;stroke-width:0.5;" x="518.4" xlink:href="#m48ca3db8d1" y="388.8"/>
      </g>
     </g>
     <g id="text_9">
      <!-- 0.002 -->
      <defs>
       <path d="M 10.6875 12.40625 
L 21 12.40625 
L 21 0 
L 10.6875 0 
z
" id="BitstreamVeraSans-Roman-2e"/>
      </defs>
      <g transform="translate(33.64625 392.11125)scale(0.12 -0.12)">
       <use xlink:href="#BitstreamVeraSans-Roman-30"/>
       <use x="63.623046875" xlink:href="#BitstreamVeraSans-Roman-2e"/>
       <use x="95.41015625" xlink:href="#BitstreamVeraSans-Roman-30"/>
       <use x="159.033203125" xlink:href="#BitstreamVeraSans-Roman-30"/>
       <use x="222.65625" xlink:href="#BitstreamVeraSans-Roman-32"/>
      </g>
     </g>
    </g>
    <g id="ytick_2">
     <g id="line2d_20">
      <g>
       <use style="stroke:#000000;stroke-width:0.5;" x="72.0" xlink:href="#ma480636bed" y="319.68"/>
      </g>
     </g>
     <g id="line2d_21">
      <g>
       <use style="stroke:#000000;stroke-width:0.5;" x="518.4" xlink:href="#m48ca3db8d1" y="319.68"/>
      </g>
     </g>
     <g id="text_10">
      <!-- 0.004 -->
      <g transform="translate(33.64625 322.99125)scale(0.12 -0.12)">
       <use xlink:href="#BitstreamVeraSans-Roman-30"/>
       <use x="63.623046875" xlink:href="#BitstreamVeraSans-Roman-2e"/>
       <use x="95.41015625" xlink:href="#BitstreamVeraSans-Roman-30"/>
       <use x="159.033203125" xlink:href="#BitstreamVeraSans-Roman-30"/>
       <use x="222.65625" xlink:href="#BitstreamVeraSans-Roman-34"/>
      </g>
     </g>
    </g>
    <g id="ytick_3">
     <g id="line2d_22">
      <g>
       <use style="stroke:#000000;stroke-width:0.5;" x="72.0" xlink:href="#ma480636bed" y="250.56"/>
      </g>
     </g>
     <g id="line2d_23">
      <g>
       <use style="stroke:#000000;stroke-width:0.5;" x="518.4" xlink:href="#m48ca3db8d1" y="250.56"/>
      </g>
     </g>
     <g id="text_11">
      <!-- 0.006 -->
      <g transform="translate(33.64625 253.87125)scale(0.12 -0.12)">
       <use xlink:href="#BitstreamVeraSans-Roman-30"/>
       <use x="63.623046875" xlink:href="#BitstreamVeraSans-Roman-2e"/>
       <use x="95.41015625" xlink:href="#BitstreamVeraSans-Roman-30"/>
       <use x="159.033203125" xlink:href="#BitstreamVeraSans-Roman-30"/>
       <use x="222.65625" xlink:href="#BitstreamVeraSans-Roman-36"/>
      </g>
     </g>
    </g>
    <g id="ytick_4">
     <g id="line2d_24">
      <g>
       <use style="stroke:#000000;stroke-width:0.5;" x="72.0" xlink:href="#ma480636bed" y="181.44"/>
      </g>
     </g>
     <g id="line2d_25">
      <g>
       <use style="stroke:#000000;stroke-width:0.5;" x="518.4" xlink:href="#m48ca3db8d1" y="181.44"/>
      </g>
     </g>
     <g id="text_12">
      <!-- 0.008 -->
      <defs>
       <path d="M 31.78125 34.625 
Q 24.75 34.625 20.71875 30.859375 
Q 16.703125 27.09375 16.703125 20.515625 
Q 16.703125 13.921875 20.71875 10.15625 
Q 24.75 6.390625 31.78125 6.390625 
Q 38.8125 6.390625 42.859375 10.171875 
Q 46.921875 13.96875 46.921875 20.515625 
Q 46.921875 27.09375 42.890625 30.859375 
Q 38.875 34.625 31.78125 34.625 
M 21.921875 38.8125 
Q 15.578125 40.375 12.03125 44.71875 
Q 8.5 49.078125 8.5 55.328125 
Q 8.5 64.0625 14.71875 69.140625 
Q 20.953125 74.21875 31.78125 74.21875 
Q 42.671875 74.21875 48.875 69.140625 
Q 55.078125 64.0625 55.078125 55.328125 
Q 55.078125 49.078125 51.53125 44.71875 
Q 48 40.375 41.703125 38.8125 
Q 48.828125 37.15625 52.796875 32.3125 
Q 56.78125 27.484375 56.78125 20.515625 
Q 56.78125 9.90625 50.3125 4.234375 
Q 43.84375 -1.421875 31.78125 -1.421875 
Q 19.734375 -1.421875 13.25 4.234375 
Q 6.78125 9.90625 6.78125 20.515625 
Q 6.78125 27.484375 10.78125 32.3125 
Q 14.796875 37.15625 21.921875 38.8125 
M 18.3125 54.390625 
Q 18.3125 48.734375 21.84375 45.5625 
Q 25.390625 42.390625 31.78125 42.390625 
Q 38.140625 42.390625 41.71875 45.5625 
Q 45.3125 48.734375 45.3125 54.390625 
Q 45.3125 60.0625 41.71875 63.234375 
Q 38.140625 66.40625 31.78125 66.40625 
Q 25.390625 66.40625 21.84375 63.234375 
Q 18.3125 60.0625 18.3125 54.390625 
" id="BitstreamVeraSans-Roman-38"/>
      </defs>
      <g transform="translate(33.64625 184.75125)scale(0.12 -0.12)">
       <use xlink:href="#BitstreamVeraSans-Roman-30"/>
       <use x="63.623046875" xlink:href="#BitstreamVeraSans-Roman-2e"/>
       <use x="95.41015625" xlink:href="#BitstreamVeraSans-Roman-30"/>
       <use x="159.033203125" xlink:href="#BitstreamVeraSans-Roman-30"/>
       <use x="222.65625" xlink:href="#BitstreamVeraSans-Roman-38"/>
      </g>
     </g>
    </g>
    <g id="ytick_5">
     <g id="line2d_26">
      <g>
       <use style="stroke:#000000;stroke-width:0.5;" x="72.0" xlink:href="#ma480636bed" y="112.32"/>
      </g>
     </g>
     <g id="line2d_27">
      <g>
       <use style="stroke:#000000;stroke-width:0.5;" x="518.4" xlink:href="#m48ca3db8d1" y="112.32"/>
      </g>
     </g>
     <g id="text_13">
      <!-- 0.010 -->
      <g transform="translate(33.64625 115.63125)scale(0.12 -0.12)">
       <use xlink:href="#BitstreamVeraSans-Roman-30"/>
       <use x="63.623046875" xlink:href="#BitstreamVeraSans-Roman-2e"/>
       <use x="95.41015625" xlink:href="#BitstreamVeraSans-Roman-30"/>
       <use x="159.033203125" xlink:href="#BitstreamVeraSans-Roman-31"/>
       <use x="222.65625" xlink:href="#BitstreamVeraSans-Roman-30"/>
      </g>
     </g>
    </g>
    <g id="ytick_6">
     <g id="line2d_28">
      <g>
       <use style="stroke:#000000;stroke-width:0.5;" x="72.0" xlink:href="#ma480636bed" y="43.2"/>
      </g>
     </g>
     <g id="line2d_29">
      <g>
       <use style="stroke:#000000;stroke-width:0.5;" x="518.4" xlink:href="#m48ca3db8d1" y="43.2"/>
      </g>
     </g>
     <g id="text_14">
      <!-- 0.012 -->
      <g transform="translate(33.64625 46.51125)scale(0.12 -0.12)">
       <use xlink:href="#BitstreamVeraSans-Roman-30"/>
       <use x="63.623046875" xlink:href="#BitstreamVeraSans-Roman-2e"/>
       <use x="95.41015625" xlink:href="#BitstreamVeraSans-Roman-30"/>
       <use x="159.033203125" xlink:href="#BitstreamVeraSans-Roman-31"/>
       <use x="222.65625" xlink:href="#BitstreamVeraSans-Roman-32"/>
      </g>
     </g>
    </g>
    <g id="text_15">
     <!-- RMSE -->
     <defs>
      <path d="M 44.390625 34.1875 
Q 47.5625 33.109375 50.5625 29.59375 
Q 53.5625 26.078125 56.59375 19.921875 
L 66.609375 0 
L 56 0 
L 46.6875 18.703125 
Q 43.0625 26.03125 39.671875 28.421875 
Q 36.28125 30.8125 30.421875 30.8125 
L 19.671875 30.8125 
L 19.671875 0 
L 9.8125 0 
L 9.8125 72.90625 
L 32.078125 72.90625 
Q 44.578125 72.90625 50.734375 67.671875 
Q 56.890625 62.453125 56.890625 51.90625 
Q 56.890625 45.015625 53.6875 40.46875 
Q 50.484375 35.9375 44.390625 34.1875 
M 19.671875 64.796875 
L 19.671875 38.921875 
L 32.078125 38.921875 
Q 39.203125 38.921875 42.84375 42.21875 
Q 46.484375 45.515625 46.484375 51.90625 
Q 46.484375 58.296875 42.84375 61.546875 
Q 39.203125 64.796875 32.078125 64.796875 
z
" id="BitstreamVeraSans-Roman-52"/>
      <path d="M 9.8125 72.90625 
L 24.515625 72.90625 
L 43.109375 23.296875 
L 61.8125 72.90625 
L 76.515625 72.90625 
L 76.515625 0 
L 66.890625 0 
L 66.890625 64.015625 
L 48.09375 14.015625 
L 38.1875 14.015625 
L 19.390625 64.015625 
L 19.390625 0 
L 9.8125 0 
z
" id="BitstreamVeraSans-Roman-4d"/>
      <path d="M 9.8125 72.90625 
L 55.90625 72.90625 
L 55.90625 64.59375 
L 19.671875 64.59375 
L 19.671875 43.015625 
L 54.390625 43.015625 
L 54.390625 34.71875 
L 19.671875 34.71875 
L 19.671875 8.296875 
L 56.78125 8.296875 
L 56.78125 0 
L 9.8125 0 
z
" id="BitstreamVeraSans-Roman-45"/>
     </defs>
     <g transform="translate(26.150625 232.94625)rotate(-90.0)scale(0.12 -0.12)">
      <use xlink:href="#BitstreamVeraSans-Roman-52"/>
      <use x="69.482421875" xlink:href="#BitstreamVeraSans-Roman-4d"/>
      <use x="155.76171875" xlink:href="#BitstreamVeraSans-Roman-53"/>
      <use x="219.23828125" xlink:href="#BitstreamVeraSans-Roman-45"/>
     </g>
    </g>
   </g>
   <g id="text_16">
    <!-- RMSE of Train and Test Data For Istanbul.csv -->
    <defs>
     <path d="M 54.890625 33.015625 
L 54.890625 0 
L 45.90625 0 
L 45.90625 32.71875 
Q 45.90625 40.484375 42.875 44.328125 
Q 39.84375 48.1875 33.796875 48.1875 
Q 26.515625 48.1875 22.3125 43.546875 
Q 18.109375 38.921875 18.109375 30.90625 
L 18.109375 0 
L 9.078125 0 
L 9.078125 54.6875 
L 18.109375 54.6875 
L 18.109375 46.1875 
Q 21.34375 51.125 25.703125 53.5625 
Q 30.078125 56 35.796875 56 
Q 45.21875 56 50.046875 50.171875 
Q 54.890625 44.34375 54.890625 33.015625 
" id="BitstreamVeraSans-Roman-6e"/>
     <path d="M 30.609375 48.390625 
Q 23.390625 48.390625 19.1875 42.75 
Q 14.984375 37.109375 14.984375 27.296875 
Q 14.984375 17.484375 19.15625 11.84375 
Q 23.34375 6.203125 30.609375 6.203125 
Q 37.796875 6.203125 41.984375 11.859375 
Q 46.1875 17.53125 46.1875 27.296875 
Q 46.1875 37.015625 41.984375 42.703125 
Q 37.796875 48.390625 30.609375 48.390625 
M 30.609375 56 
Q 42.328125 56 49.015625 48.375 
Q 55.71875 40.765625 55.71875 27.296875 
Q 55.71875 13.875 49.015625 6.21875 
Q 42.328125 -1.421875 30.609375 -1.421875 
Q 18.84375 -1.421875 12.171875 6.21875 
Q 5.515625 13.875 5.515625 27.296875 
Q 5.515625 40.765625 12.171875 48.375 
Q 18.84375 56 30.609375 56 
" id="BitstreamVeraSans-Roman-6f"/>
     <path d="M 9.421875 75.984375 
L 18.40625 75.984375 
L 18.40625 0 
L 9.421875 0 
z
" id="BitstreamVeraSans-Roman-6c"/>
     <path d="M 9.8125 72.90625 
L 51.703125 72.90625 
L 51.703125 64.59375 
L 19.671875 64.59375 
L 19.671875 43.109375 
L 48.578125 43.109375 
L 48.578125 34.8125 
L 19.671875 34.8125 
L 19.671875 0 
L 9.8125 0 
z
" id="BitstreamVeraSans-Roman-46"/>
     <path d="M 19.671875 64.796875 
L 19.671875 8.109375 
L 31.59375 8.109375 
Q 46.6875 8.109375 53.6875 14.9375 
Q 60.6875 21.78125 60.6875 36.53125 
Q 60.6875 51.171875 53.6875 57.984375 
Q 46.6875 64.796875 31.59375 64.796875 
z
M 9.8125 72.90625 
L 30.078125 72.90625 
Q 51.265625 72.90625 61.171875 64.09375 
Q 71.09375 55.28125 71.09375 36.53125 
Q 71.09375 17.671875 61.125 8.828125 
Q 51.171875 0 30.078125 0 
L 9.8125 0 
z
" id="BitstreamVeraSans-Roman-44"/>
     <path d="M -0.296875 72.90625 
L 61.375 72.90625 
L 61.375 64.59375 
L 35.5 64.59375 
L 35.5 0 
L 25.59375 0 
L 25.59375 64.59375 
L -0.296875 64.59375 
z
" id="BitstreamVeraSans-Roman-54"/>
     <path d="M 48.78125 52.59375 
L 48.78125 44.1875 
Q 44.96875 46.296875 41.140625 47.34375 
Q 37.3125 48.390625 33.40625 48.390625 
Q 24.65625 48.390625 19.8125 42.84375 
Q 14.984375 37.3125 14.984375 27.296875 
Q 14.984375 17.28125 19.8125 11.734375 
Q 24.65625 6.203125 33.40625 6.203125 
Q 37.3125 6.203125 41.140625 7.25 
Q 44.96875 8.296875 48.78125 10.40625 
L 48.78125 2.09375 
Q 45.015625 0.34375 40.984375 -0.53125 
Q 36.96875 -1.421875 32.421875 -1.421875 
Q 20.0625 -1.421875 12.78125 6.34375 
Q 5.515625 14.109375 5.515625 27.296875 
Q 5.515625 40.671875 12.859375 48.328125 
Q 20.21875 56 33.015625 56 
Q 37.15625 56 41.109375 55.140625 
Q 45.0625 54.296875 48.78125 52.59375 
" id="BitstreamVeraSans-Roman-63"/>
     <path d="M 2.984375 54.6875 
L 12.5 54.6875 
L 29.59375 8.796875 
L 46.6875 54.6875 
L 56.203125 54.6875 
L 35.6875 0 
L 23.484375 0 
z
" id="BitstreamVeraSans-Roman-76"/>
     <path d="M 45.40625 46.390625 
L 45.40625 75.984375 
L 54.390625 75.984375 
L 54.390625 0 
L 45.40625 0 
L 45.40625 8.203125 
Q 42.578125 3.328125 38.25 0.953125 
Q 33.9375 -1.421875 27.875 -1.421875 
Q 17.96875 -1.421875 11.734375 6.484375 
Q 5.515625 14.40625 5.515625 27.296875 
Q 5.515625 40.1875 11.734375 48.09375 
Q 17.96875 56 27.875 56 
Q 33.9375 56 38.25 53.625 
Q 42.578125 51.265625 45.40625 46.390625 
M 14.796875 27.296875 
Q 14.796875 17.390625 18.875 11.75 
Q 22.953125 6.109375 30.078125 6.109375 
Q 37.203125 6.109375 41.296875 11.75 
Q 45.40625 17.390625 45.40625 27.296875 
Q 45.40625 37.203125 41.296875 42.84375 
Q 37.203125 48.484375 30.078125 48.484375 
Q 22.953125 48.484375 18.875 42.84375 
Q 14.796875 37.203125 14.796875 27.296875 
" id="BitstreamVeraSans-Roman-64"/>
     <path d="M 18.3125 70.21875 
L 18.3125 54.6875 
L 36.8125 54.6875 
L 36.8125 47.703125 
L 18.3125 47.703125 
L 18.3125 18.015625 
Q 18.3125 11.328125 20.140625 9.421875 
Q 21.96875 7.515625 27.59375 7.515625 
L 36.8125 7.515625 
L 36.8125 0 
L 27.59375 0 
Q 17.1875 0 13.234375 3.875 
Q 9.28125 7.765625 9.28125 18.015625 
L 9.28125 47.703125 
L 2.6875 47.703125 
L 2.6875 54.6875 
L 9.28125 54.6875 
L 9.28125 70.21875 
z
" id="BitstreamVeraSans-Roman-74"/>
     <path d="M 8.5 21.578125 
L 8.5 54.6875 
L 17.484375 54.6875 
L 17.484375 21.921875 
Q 17.484375 14.15625 20.5 10.265625 
Q 23.53125 6.390625 29.59375 6.390625 
Q 36.859375 6.390625 41.078125 11.03125 
Q 45.3125 15.671875 45.3125 23.6875 
L 45.3125 54.6875 
L 54.296875 54.6875 
L 54.296875 0 
L 45.3125 0 
L 45.3125 8.40625 
Q 42.046875 3.421875 37.71875 1 
Q 33.40625 -1.421875 27.6875 -1.421875 
Q 18.265625 -1.421875 13.375 4.4375 
Q 8.5 10.296875 8.5 21.578125 
" id="BitstreamVeraSans-Roman-75"/>
     <path d="M 41.109375 46.296875 
Q 39.59375 47.171875 37.8125 47.578125 
Q 36.03125 48 33.890625 48 
Q 26.265625 48 22.1875 43.046875 
Q 18.109375 38.09375 18.109375 28.8125 
L 18.109375 0 
L 9.078125 0 
L 9.078125 54.6875 
L 18.109375 54.6875 
L 18.109375 46.1875 
Q 20.953125 51.171875 25.484375 53.578125 
Q 30.03125 56 36.53125 56 
Q 37.453125 56 38.578125 55.875 
Q 39.703125 55.765625 41.0625 55.515625 
z
" id="BitstreamVeraSans-Roman-72"/>
     <path d="M 44.28125 53.078125 
L 44.28125 44.578125 
Q 40.484375 46.53125 36.375 47.5 
Q 32.28125 48.484375 27.875 48.484375 
Q 21.1875 48.484375 17.84375 46.4375 
Q 14.5 44.390625 14.5 40.28125 
Q 14.5 37.15625 16.890625 35.375 
Q 19.28125 33.59375 26.515625 31.984375 
L 29.59375 31.296875 
Q 39.15625 29.25 43.1875 25.515625 
Q 47.21875 21.78125 47.21875 15.09375 
Q 47.21875 7.46875 41.1875 3.015625 
Q 35.15625 -1.421875 24.609375 -1.421875 
Q 20.21875 -1.421875 15.453125 -0.5625 
Q 10.6875 0.296875 5.421875 2 
L 5.421875 11.28125 
Q 10.40625 8.6875 15.234375 7.390625 
Q 20.0625 6.109375 24.8125 6.109375 
Q 31.15625 6.109375 34.5625 8.28125 
Q 37.984375 10.453125 37.984375 14.40625 
Q 37.984375 18.0625 35.515625 20.015625 
Q 33.0625 21.96875 24.703125 23.78125 
L 21.578125 24.515625 
Q 13.234375 26.265625 9.515625 29.90625 
Q 5.8125 33.546875 5.8125 39.890625 
Q 5.8125 47.609375 11.28125 51.796875 
Q 16.75 56 26.8125 56 
Q 31.78125 56 36.171875 55.265625 
Q 40.578125 54.546875 44.28125 53.078125 
" id="BitstreamVeraSans-Roman-73"/>
     <path d="M 9.8125 72.90625 
L 19.671875 72.90625 
L 19.671875 0 
L 9.8125 0 
z
" id="BitstreamVeraSans-Roman-49"/>
     <path d="M 48.6875 27.296875 
Q 48.6875 37.203125 44.609375 42.84375 
Q 40.53125 48.484375 33.40625 48.484375 
Q 26.265625 48.484375 22.1875 42.84375 
Q 18.109375 37.203125 18.109375 27.296875 
Q 18.109375 17.390625 22.1875 11.75 
Q 26.265625 6.109375 33.40625 6.109375 
Q 40.53125 6.109375 44.609375 11.75 
Q 48.6875 17.390625 48.6875 27.296875 
M 18.109375 46.390625 
Q 20.953125 51.265625 25.265625 53.625 
Q 29.59375 56 35.59375 56 
Q 45.5625 56 51.78125 48.09375 
Q 58.015625 40.1875 58.015625 27.296875 
Q 58.015625 14.40625 51.78125 6.484375 
Q 45.5625 -1.421875 35.59375 -1.421875 
Q 29.59375 -1.421875 25.265625 0.953125 
Q 20.953125 3.328125 18.109375 8.203125 
L 18.109375 0 
L 9.078125 0 
L 9.078125 75.984375 
L 18.109375 75.984375 
z
" id="BitstreamVeraSans-Roman-62"/>
    </defs>
    <g transform="translate(132.90075 38.2)scale(0.144 -0.144)">
     <use xlink:href="#BitstreamVeraSans-Roman-52"/>
     <use x="69.482421875" xlink:href="#BitstreamVeraSans-Roman-4d"/>
     <use x="155.76171875" xlink:href="#BitstreamVeraSans-Roman-53"/>
     <use x="219.23828125" xlink:href="#BitstreamVeraSans-Roman-45"/>
     <use x="282.421875" xlink:href="#BitstreamVeraSans-Roman-20"/>
     <use x="314.208984375" xlink:href="#BitstreamVeraSans-Roman-6f"/>
     <use x="375.390625" xlink:href="#BitstreamVeraSans-Roman-66"/>
     <use x="410.595703125" xlink:href="#BitstreamVeraSans-Roman-20"/>
     <use x="442.3828125" xlink:href="#BitstreamVeraSans-Roman-54"/>
     <use x="503.248046875" xlink:href="#BitstreamVeraSans-Roman-72"/>
     <use x="544.361328125" xlink:href="#BitstreamVeraSans-Roman-61"/>
     <use x="605.640625" xlink:href="#BitstreamVeraSans-Roman-69"/>
     <use x="633.423828125" xlink:href="#BitstreamVeraSans-Roman-6e"/>
     <use x="696.802734375" xlink:href="#BitstreamVeraSans-Roman-20"/>
     <use x="728.58984375" xlink:href="#BitstreamVeraSans-Roman-61"/>
     <use x="789.869140625" xlink:href="#BitstreamVeraSans-Roman-6e"/>
     <use x="853.248046875" xlink:href="#BitstreamVeraSans-Roman-64"/>
     <use x="916.724609375" xlink:href="#BitstreamVeraSans-Roman-20"/>
     <use x="948.51171875" xlink:href="#BitstreamVeraSans-Roman-54"/>
     <use x="1009.33007812" xlink:href="#BitstreamVeraSans-Roman-65"/>
     <use x="1070.85351562" xlink:href="#BitstreamVeraSans-Roman-73"/>
     <use x="1122.953125" xlink:href="#BitstreamVeraSans-Roman-74"/>
     <use x="1162.16210938" xlink:href="#BitstreamVeraSans-Roman-20"/>
     <use x="1193.94921875" xlink:href="#BitstreamVeraSans-Roman-44"/>
     <use x="1270.95117188" xlink:href="#BitstreamVeraSans-Roman-61"/>
     <use x="1332.23046875" xlink:href="#BitstreamVeraSans-Roman-74"/>
     <use x="1371.43945312" xlink:href="#BitstreamVeraSans-Roman-61"/>
     <use x="1432.71875" xlink:href="#BitstreamVeraSans-Roman-20"/>
     <use x="1464.50585938" xlink:href="#BitstreamVeraSans-Roman-46"/>
     <use x="1521.97851562" xlink:href="#BitstreamVeraSans-Roman-6f"/>
     <use x="1583.16015625" xlink:href="#BitstreamVeraSans-Roman-72"/>
     <use x="1624.2734375" xlink:href="#BitstreamVeraSans-Roman-20"/>
     <use x="1656.06054688" xlink:href="#BitstreamVeraSans-Roman-49"/>
     <use x="1685.55273438" xlink:href="#BitstreamVeraSans-Roman-73"/>
     <use x="1737.65234375" xlink:href="#BitstreamVeraSans-Roman-74"/>
     <use x="1776.86132812" xlink:href="#BitstreamVeraSans-Roman-61"/>
     <use x="1838.140625" xlink:href="#BitstreamVeraSans-Roman-6e"/>
     <use x="1901.51953125" xlink:href="#BitstreamVeraSans-Roman-62"/>
     <use x="1964.99609375" xlink:href="#BitstreamVeraSans-Roman-75"/>
     <use x="2028.375" xlink:href="#BitstreamVeraSans-Roman-6c"/>
     <use x="2056.15820312" xlink:href="#BitstreamVeraSans-Roman-2e"/>
     <use x="2087.9453125" xlink:href="#BitstreamVeraSans-Roman-63"/>
     <use x="2142.92578125" xlink:href="#BitstreamVeraSans-Roman-73"/>
     <use x="2195.02539062" xlink:href="#BitstreamVeraSans-Roman-76"/>
    </g>
   </g>
   <g id="legend_1">
    <g id="patch_7">
     <path d="M 216.9945 381.6 
L 511.2 381.6 
L 511.2 313.8705 
L 216.9945 313.8705 
z
" style="fill:#ffffff;stroke:#000000;stroke-linejoin:miter;"/>
    </g>
    <g id="line2d_30">
     <path d="M 227.0745 325.53225 
L 247.2345 325.53225 
" style="fill:none;stroke:#0000ff;stroke-linecap:square;"/>
    </g>
    <g id="line2d_31"/>
    <g id="text_17">
     <!-- In Sample -->
     <defs>
      <path d="M 52 44.1875 
Q 55.375 50.25 60.0625 53.125 
Q 64.75 56 71.09375 56 
Q 79.640625 56 84.28125 50.015625 
Q 88.921875 44.046875 88.921875 33.015625 
L 88.921875 0 
L 79.890625 0 
L 79.890625 32.71875 
Q 79.890625 40.578125 77.09375 44.375 
Q 74.3125 48.1875 68.609375 48.1875 
Q 61.625 48.1875 57.5625 43.546875 
Q 53.515625 38.921875 53.515625 30.90625 
L 53.515625 0 
L 44.484375 0 
L 44.484375 32.71875 
Q 44.484375 40.625 41.703125 44.40625 
Q 38.921875 48.1875 33.109375 48.1875 
Q 26.21875 48.1875 22.15625 43.53125 
Q 18.109375 38.875 18.109375 30.90625 
L 18.109375 0 
L 9.078125 0 
L 9.078125 54.6875 
L 18.109375 54.6875 
L 18.109375 46.1875 
Q 21.1875 51.21875 25.484375 53.609375 
Q 29.78125 56 35.6875 56 
Q 41.65625 56 45.828125 52.96875 
Q 50 49.953125 52 44.1875 
" id="BitstreamVeraSans-Roman-6d"/>
      <path d="M 18.109375 8.203125 
L 18.109375 -20.796875 
L 9.078125 -20.796875 
L 9.078125 54.6875 
L 18.109375 54.6875 
L 18.109375 46.390625 
Q 20.953125 51.265625 25.265625 53.625 
Q 29.59375 56 35.59375 56 
Q 45.5625 56 51.78125 48.09375 
Q 58.015625 40.1875 58.015625 27.296875 
Q 58.015625 14.40625 51.78125 6.484375 
Q 45.5625 -1.421875 35.59375 -1.421875 
Q 29.59375 -1.421875 25.265625 0.953125 
Q 20.953125 3.328125 18.109375 8.203125 
M 48.6875 27.296875 
Q 48.6875 37.203125 44.609375 42.84375 
Q 40.53125 48.484375 33.40625 48.484375 
Q 26.265625 48.484375 22.1875 42.84375 
Q 18.109375 37.203125 18.109375 27.296875 
Q 18.109375 17.390625 22.1875 11.75 
Q 26.265625 6.109375 33.40625 6.109375 
Q 40.53125 6.109375 44.609375 11.75 
Q 48.6875 17.390625 48.6875 27.296875 
" id="BitstreamVeraSans-Roman-70"/>
     </defs>
     <g transform="translate(263.0745 330.57225)scale(0.144 -0.144)">
      <use xlink:href="#BitstreamVeraSans-Roman-49"/>
      <use x="29.4921875" xlink:href="#BitstreamVeraSans-Roman-6e"/>
      <use x="92.87109375" xlink:href="#BitstreamVeraSans-Roman-20"/>
      <use x="124.658203125" xlink:href="#BitstreamVeraSans-Roman-53"/>
      <use x="188.134765625" xlink:href="#BitstreamVeraSans-Roman-61"/>
      <use x="249.4140625" xlink:href="#BitstreamVeraSans-Roman-6d"/>
      <use x="346.826171875" xlink:href="#BitstreamVeraSans-Roman-70"/>
      <use x="410.302734375" xlink:href="#BitstreamVeraSans-Roman-6c"/>
      <use x="438.0859375" xlink:href="#BitstreamVeraSans-Roman-65"/>
     </g>
    </g>
    <g id="line2d_32">
     <path d="M 227.0745 346.66875 
L 247.2345 346.66875 
" style="fill:none;stroke:#008000;stroke-linecap:square;"/>
    </g>
    <g id="line2d_33"/>
    <g id="text_18">
     <!-- Out Of Sample -->
     <defs>
      <path d="M 39.40625 66.21875 
Q 28.65625 66.21875 22.328125 58.203125 
Q 16.015625 50.203125 16.015625 36.375 
Q 16.015625 22.609375 22.328125 14.59375 
Q 28.65625 6.59375 39.40625 6.59375 
Q 50.140625 6.59375 56.421875 14.59375 
Q 62.703125 22.609375 62.703125 36.375 
Q 62.703125 50.203125 56.421875 58.203125 
Q 50.140625 66.21875 39.40625 66.21875 
M 39.40625 74.21875 
Q 54.734375 74.21875 63.90625 63.9375 
Q 73.09375 53.65625 73.09375 36.375 
Q 73.09375 19.140625 63.90625 8.859375 
Q 54.734375 -1.421875 39.40625 -1.421875 
Q 24.03125 -1.421875 14.8125 8.828125 
Q 5.609375 19.09375 5.609375 36.375 
Q 5.609375 53.65625 14.8125 63.9375 
Q 24.03125 74.21875 39.40625 74.21875 
" id="BitstreamVeraSans-Roman-4f"/>
     </defs>
     <g transform="translate(263.0745 351.70875)scale(0.144 -0.144)">
      <use xlink:href="#BitstreamVeraSans-Roman-4f"/>
      <use x="78.7109375" xlink:href="#BitstreamVeraSans-Roman-75"/>
      <use x="142.08984375" xlink:href="#BitstreamVeraSans-Roman-74"/>
      <use x="181.298828125" xlink:href="#BitstreamVeraSans-Roman-20"/>
      <use x="213.0859375" xlink:href="#BitstreamVeraSans-Roman-4f"/>
      <use x="291.796875" xlink:href="#BitstreamVeraSans-Roman-66"/>
      <use x="327.001953125" xlink:href="#BitstreamVeraSans-Roman-20"/>
      <use x="358.7890625" xlink:href="#BitstreamVeraSans-Roman-53"/>
      <use x="422.265625" xlink:href="#BitstreamVeraSans-Roman-61"/>
      <use x="483.544921875" xlink:href="#BitstreamVeraSans-Roman-6d"/>
      <use x="580.95703125" xlink:href="#BitstreamVeraSans-Roman-70"/>
      <use x="644.43359375" xlink:href="#BitstreamVeraSans-Roman-6c"/>
      <use x="672.216796875" xlink:href="#BitstreamVeraSans-Roman-65"/>
     </g>
    </g>
    <g id="line2d_34">
     <path d="M 227.0745 367.80525 
L 247.2345 367.80525 
" style="fill:none;stroke:#ff0000;stroke-linecap:square;"/>
    </g>
    <g id="line2d_35"/>
    <g id="text_19">
     <!-- Min Out of Sample Value (x = 14) -->
     <defs>
      <path d="M 8.015625 75.875 
L 15.828125 75.875 
Q 23.140625 64.359375 26.78125 53.3125 
Q 30.421875 42.28125 30.421875 31.390625 
Q 30.421875 20.453125 26.78125 9.375 
Q 23.140625 -1.703125 15.828125 -13.1875 
L 8.015625 -13.1875 
Q 14.5 -2 17.703125 9.0625 
Q 20.90625 20.125 20.90625 31.390625 
Q 20.90625 42.671875 17.703125 53.65625 
Q 14.5 64.65625 8.015625 75.875 
" id="BitstreamVeraSans-Roman-29"/>
      <path d="M 31 75.875 
Q 24.46875 64.65625 21.28125 53.65625 
Q 18.109375 42.671875 18.109375 31.390625 
Q 18.109375 20.125 21.3125 9.0625 
Q 24.515625 -2 31 -13.1875 
L 23.1875 -13.1875 
Q 15.875 -1.703125 12.234375 9.375 
Q 8.59375 20.453125 8.59375 31.390625 
Q 8.59375 42.28125 12.203125 53.3125 
Q 15.828125 64.359375 23.1875 75.875 
z
" id="BitstreamVeraSans-Roman-28"/>
      <path d="M 10.59375 45.40625 
L 73.1875 45.40625 
L 73.1875 37.203125 
L 10.59375 37.203125 
z
M 10.59375 25.484375 
L 73.1875 25.484375 
L 73.1875 17.1875 
L 10.59375 17.1875 
z
" id="BitstreamVeraSans-Roman-3d"/>
      <path d="M 54.890625 54.6875 
L 35.109375 28.078125 
L 55.90625 0 
L 45.3125 0 
L 29.390625 21.484375 
L 13.484375 0 
L 2.875 0 
L 24.125 28.609375 
L 4.6875 54.6875 
L 15.28125 54.6875 
L 29.78125 35.203125 
L 44.28125 54.6875 
z
" id="BitstreamVeraSans-Roman-78"/>
      <path d="M 28.609375 0 
L 0.78125 72.90625 
L 11.078125 72.90625 
L 34.1875 11.53125 
L 57.328125 72.90625 
L 67.578125 72.90625 
L 39.796875 0 
z
" id="BitstreamVeraSans-Roman-56"/>
     </defs>
     <g transform="translate(263.0745 372.84525)scale(0.144 -0.144)">
      <use xlink:href="#BitstreamVeraSans-Roman-4d"/>
      <use x="86.279296875" xlink:href="#BitstreamVeraSans-Roman-69"/>
      <use x="114.0625" xlink:href="#BitstreamVeraSans-Roman-6e"/>
      <use x="177.44140625" xlink:href="#BitstreamVeraSans-Roman-20"/>
      <use x="209.228515625" xlink:href="#BitstreamVeraSans-Roman-4f"/>
      <use x="287.939453125" xlink:href="#BitstreamVeraSans-Roman-75"/>
      <use x="351.318359375" xlink:href="#BitstreamVeraSans-Roman-74"/>
      <use x="390.52734375" xlink:href="#BitstreamVeraSans-Roman-20"/>
      <use x="422.314453125" xlink:href="#BitstreamVeraSans-Roman-6f"/>
      <use x="483.49609375" xlink:href="#BitstreamVeraSans-Roman-66"/>
      <use x="518.701171875" xlink:href="#BitstreamVeraSans-Roman-20"/>
      <use x="550.48828125" xlink:href="#BitstreamVeraSans-Roman-53"/>
      <use x="613.96484375" xlink:href="#BitstreamVeraSans-Roman-61"/>
      <use x="675.244140625" xlink:href="#BitstreamVeraSans-Roman-6d"/>
      <use x="772.65625" xlink:href="#BitstreamVeraSans-Roman-70"/>
      <use x="836.1328125" xlink:href="#BitstreamVeraSans-Roman-6c"/>
      <use x="863.916015625" xlink:href="#BitstreamVeraSans-Roman-65"/>
      <use x="925.439453125" xlink:href="#BitstreamVeraSans-Roman-20"/>
      <use x="957.2265625" xlink:href="#BitstreamVeraSans-Roman-56"/>
      <use x="1025.52539062" xlink:href="#BitstreamVeraSans-Roman-61"/>
      <use x="1086.8046875" xlink:href="#BitstreamVeraSans-Roman-6c"/>
      <use x="1114.58789062" xlink:href="#BitstreamVeraSans-Roman-75"/>
      <use x="1177.96679688" xlink:href="#BitstreamVeraSans-Roman-65"/>
      <use x="1239.49023438" xlink:href="#BitstreamVeraSans-Roman-20"/>
      <use x="1271.27734375" xlink:href="#BitstreamVeraSans-Roman-28"/>
      <use x="1310.29101562" xlink:href="#BitstreamVeraSans-Roman-78"/>
      <use x="1369.47070312" xlink:href="#BitstreamVeraSans-Roman-20"/>
      <use x="1401.2578125" xlink:href="#BitstreamVeraSans-Roman-3d"/>
      <use x="1485.046875" xlink:href="#BitstreamVeraSans-Roman-20"/>
      <use x="1516.83398438" xlink:href="#BitstreamVeraSans-Roman-31"/>
      <use x="1580.45703125" xlink:href="#BitstreamVeraSans-Roman-34"/>
      <use x="1644.08007812" xlink:href="#BitstreamVeraSans-Roman-29"/>
     </g>
    </g>
   </g>
  </g>
 </g>
 <defs>
  <clipPath id="pedb1a6cb0e">
   <rect height="345.6" width="446.4" x="72.0" y="43.2"/>
  </clipPath>
 </defs>
</svg>
